<svg id="svg" version="1.1" xmlns="http://www.w3.org/2000/svg" xmlns:xlink="http://www.w3.org/1999/xlink" width="400" height="400" viewBox="0, 0, 400,400"><g id="svgg"><path id="path0" d="M192.200 66.462 C 152.759 71.446,124.364 101.951,122.873 140.940 C 120.464 203.922,188.489 243.671,241.588 210.309 C 283.329 184.082,290.333 125.601,256.013 89.865 C 239.462 72.630,214.842 63.601,192.200 66.462 M129.000 229.141 C 110.321 238.160,94.697 254.043,83.102 275.800 C 80.817 280.086,80.279 281.183,77.602 287.000 C 75.196 292.228,72.141 300.695,70.675 306.200 C 70.558 306.640,70.023 308.620,69.486 310.600 C 68.580 313.944,68.281 315.364,67.191 321.500 C 66.668 324.448,66.008 330.562,66.003 332.500 L 66.000 334.000 199.600 334.000 L 333.200 334.000 333.200 332.264 C 333.200 324.591,328.615 303.850,325.228 296.200 C 325.033 295.760,324.390 294.140,323.800 292.600 C 312.209 262.381,290.741 237.948,266.742 227.661 L 264.885 226.865 261.476 229.377 C 256.565 232.997,248.961 237.444,243.837 239.693 C 241.397 240.764,239.040 241.813,238.600 242.022 C 238.160 242.232,236.180 242.953,234.200 243.623 C 204.562 253.657,172.418 250.167,146.200 234.067 C 142.539 231.818,141.386 231.033,137.763 228.324 C 135.125 226.350,134.698 226.390,129.000 229.141 " stroke="none" fill="#c3bcc3" fill-rule="evenodd"></path><path id="path1" d="M0.000 200.000 L 0.000 400.000 200.000 400.000 L 400.000 400.000 400.000 200.000 L 400.000 0.000 200.000 0.000 L 0.000 0.000 0.000 200.000 M214.000 66.357 C 225.345 68.620,235.519 72.713,243.423 78.192 C 245.170 79.403,247.230 80.820,248.000 81.340 C 252.293 84.237,261.582 94.358,265.952 100.898 C 288.267 134.296,280.397 182.140,248.600 206.394 C 246.840 207.736,245.126 209.060,244.791 209.336 C 235.211 217.213,216.244 223.018,200.200 222.982 C 162.437 222.899,131.397 197.415,123.354 159.893 C 120.897 148.427,122.009 128.466,125.587 119.800 C 125.769 119.360,126.396 117.629,126.980 115.952 C 131.316 103.520,143.440 87.460,153.784 80.448 C 154.673 79.845,156.480 78.623,157.800 77.731 C 173.027 67.441,196.063 62.779,214.000 66.357 M138.588 227.966 C 175.138 255.123,225.673 255.217,261.600 228.194 C 264.871 225.734,264.657 225.726,270.523 228.532 C 298.058 241.707,320.410 272.204,330.537 310.418 C 332.493 317.798,334.198 329.050,333.929 332.800 L 333.800 334.600 199.600 334.600 L 65.400 334.600 65.272 332.600 C 65.135 330.471,65.754 324.045,66.447 320.400 C 74.602 277.493,99.790 240.889,130.400 227.462 C 135.565 225.197,134.797 225.150,138.588 227.966 " stroke="none" fill="#fcfbfc" fill-rule="evenodd"></path><path id="path2" d="M197.700 65.897 C 199.185 65.974,201.615 65.974,203.100 65.897 C 204.585 65.820,203.370 65.757,200.400 65.757 C 197.430 65.757,196.215 65.820,197.700 65.897 M189.501 66.389 C 188.017 66.540,186.693 66.773,186.559 66.907 C 186.293 67.174,189.832 66.897,193.000 66.405 C 195.578 66.004,193.377 65.994,189.501 66.389 M206.500 66.276 C 206.885 66.376,207.515 66.376,207.900 66.276 C 208.285 66.175,207.970 66.093,207.200 66.093 C 206.430 66.093,206.115 66.175,206.500 66.276 M210.305 66.683 C 210.802 66.779,211.522 66.775,211.905 66.675 C 212.287 66.575,211.880 66.496,211.000 66.501 C 210.120 66.505,209.807 66.587,210.305 66.683 M183.000 67.610 C 182.466 67.847,182.798 67.886,184.000 67.727 C 184.990 67.596,185.875 67.424,185.967 67.344 C 186.314 67.043,183.764 67.272,183.000 67.610 M218.833 68.144 C 218.925 68.223,219.540 68.408,220.200 68.556 C 221.076 68.752,221.238 68.715,220.800 68.418 C 220.260 68.053,218.432 67.798,218.833 68.144 M174.119 70.162 C 173.415 70.418,172.716 70.751,172.565 70.902 C 172.263 71.204,174.036 70.716,175.600 70.066 C 176.962 69.500,175.715 69.581,174.119 70.162 M227.200 70.866 C 228.738 71.505,230.539 72.006,230.247 71.714 C 229.917 71.383,227.135 70.406,226.600 70.431 C 226.380 70.442,226.650 70.638,227.200 70.866 M232.433 72.953 C 232.841 73.327,238.400 75.989,238.400 75.810 C 238.400 75.587,232.978 72.800,232.543 72.800 C 232.391 72.800,232.342 72.869,232.433 72.953 M161.600 76.036 C 160.936 76.579,160.869 76.715,161.400 76.440 C 162.705 75.766,163.428 75.212,163.000 75.215 C 162.780 75.217,162.150 75.586,161.600 76.036 M238.800 76.135 C 238.800 76.237,239.401 76.675,240.135 77.108 C 240.869 77.541,241.994 78.211,242.635 78.595 L 243.800 79.295 242.800 78.467 C 241.657 77.521,238.800 75.856,238.800 76.135 M157.945 78.269 C 154.659 80.518,151.600 82.804,151.600 83.011 C 151.600 83.112,153.297 81.982,155.370 80.498 C 157.444 79.014,159.469 77.586,159.870 77.324 C 160.272 77.061,160.485 76.836,160.345 76.824 C 160.205 76.811,159.125 77.461,157.945 78.269 M244.200 79.488 C 244.420 79.718,246.427 81.365,248.659 83.148 C 250.892 84.932,254.574 88.328,256.841 90.696 C 259.108 93.063,260.459 94.370,259.844 93.600 C 257.765 90.999,252.334 85.605,249.458 83.284 C 246.602 80.979,243.445 78.700,244.200 79.488 M146.323 87.700 C 143.816 90.175,140.990 93.190,140.044 94.400 C 138.465 96.419,138.515 96.386,140.650 94.000 C 141.930 92.570,144.872 89.556,147.188 87.302 C 149.505 85.048,151.283 83.203,151.141 83.202 C 150.999 83.201,148.831 85.225,146.323 87.700 M262.600 97.600 C 263.616 98.920,264.537 100.000,264.647 100.000 C 264.757 100.000,264.016 98.920,263.000 97.600 C 261.984 96.280,261.063 95.200,260.953 95.200 C 260.843 95.200,261.584 96.280,262.600 97.600 M137.119 98.100 C 135.957 99.648,135.496 100.400,135.709 100.400 C 135.794 100.400,136.446 99.590,137.157 98.600 C 138.632 96.546,138.600 96.127,137.119 98.100 M267.294 104.776 C 268.428 106.757,269.413 108.320,269.483 108.250 C 269.657 108.076,265.994 101.643,265.572 101.382 C 265.386 101.268,266.161 102.794,267.294 104.776 M133.260 104.027 C 131.862 106.275,131.540 107.283,132.822 105.400 C 133.830 103.918,134.873 102.000,134.670 102.000 C 134.587 102.000,133.953 102.912,133.260 104.027 M130.604 108.869 C 130.055 110.007,129.671 111.004,129.750 111.084 C 129.830 111.163,130.213 110.547,130.601 109.714 C 130.989 108.881,131.469 107.885,131.667 107.500 C 131.866 107.115,131.932 106.800,131.815 106.800 C 131.698 106.800,131.153 107.731,130.604 108.869 M269.930 109.500 C 270.097 109.885,270.564 110.972,270.967 111.917 C 271.370 112.861,271.775 113.558,271.867 113.466 C 272.056 113.277,270.073 108.800,269.801 108.800 C 269.705 108.800,269.763 109.115,269.930 109.500 M129.199 111.633 C 129.198 111.725,128.655 113.132,127.991 114.759 C 127.328 116.387,126.853 117.786,126.936 117.869 C 127.018 117.952,127.645 116.628,128.327 114.927 C 129.010 113.227,129.486 111.752,129.384 111.651 C 129.283 111.550,129.199 111.542,129.199 111.633 M274.644 121.400 C 274.973 122.871,275.202 123.190,275.194 122.167 C 275.191 121.745,275.005 121.130,274.782 120.800 C 274.485 120.362,274.448 120.524,274.644 121.400 M276.273 128.000 C 276.404 128.990,276.576 129.875,276.656 129.967 C 276.957 130.314,276.728 127.764,276.390 127.000 C 276.153 126.466,276.114 126.798,276.273 128.000 M277.099 133.000 C 277.216 134.540,277.377 135.875,277.456 135.967 C 277.734 136.288,277.517 132.189,277.203 131.200 C 277.019 130.619,276.975 131.373,277.099 133.000 M122.656 136.245 C 122.515 137.272,122.430 140.292,122.467 142.956 L 122.534 147.800 122.806 141.200 C 123.095 134.189,123.067 133.248,122.656 136.245 M277.709 138.000 C 277.709 138.990,277.787 139.395,277.882 138.900 C 277.978 138.405,277.978 137.595,277.882 137.100 C 277.787 136.605,277.709 137.010,277.709 138.000 M278.150 144.200 C 278.151 146.620,278.216 147.558,278.296 146.285 C 278.376 145.012,278.375 143.032,278.294 141.885 C 278.214 140.738,278.149 141.780,278.150 144.200 M122.509 149.600 C 122.509 150.590,122.587 150.995,122.682 150.500 C 122.778 150.005,122.778 149.195,122.682 148.700 C 122.587 148.205,122.509 148.610,122.509 149.600 M277.709 150.400 C 277.709 151.390,277.787 151.795,277.882 151.300 C 277.978 150.805,277.978 149.995,277.882 149.500 C 277.787 149.005,277.709 149.410,277.709 150.400 M122.893 153.200 C 122.893 153.970,122.975 154.285,123.076 153.900 C 123.176 153.515,123.176 152.885,123.076 152.500 C 122.975 152.115,122.893 152.430,122.893 153.200 M277.309 154.800 C 277.309 155.790,277.387 156.195,277.482 155.700 C 277.578 155.205,277.578 154.395,277.482 153.900 C 277.387 153.405,277.309 153.810,277.309 154.800 M123.240 156.233 C 123.262 156.875,123.433 157.850,123.620 158.400 C 123.849 159.074,123.884 158.749,123.728 157.400 C 123.469 155.150,123.179 154.459,123.240 156.233 M276.460 159.267 C 276.427 159.854,276.296 160.664,276.170 161.067 C 275.952 161.760,275.965 161.761,276.395 161.090 C 276.646 160.699,276.777 159.889,276.686 159.290 L 276.520 158.200 276.460 159.267 M124.028 160.433 C 124.044 160.965,124.219 161.760,124.419 162.200 C 124.671 162.758,124.707 162.515,124.538 161.400 C 124.255 159.543,123.987 159.036,124.028 160.433 M275.646 162.867 C 275.621 163.234,275.496 163.864,275.370 164.267 C 275.152 164.962,275.163 164.963,275.597 164.287 C 275.848 163.896,275.973 163.266,275.873 162.887 C 275.711 162.268,275.688 162.266,275.646 162.867 M124.840 163.738 C 124.775 164.293,126.060 168.474,126.240 168.293 C 126.332 168.202,126.063 167.063,125.643 165.764 C 125.223 164.464,124.862 163.552,124.840 163.738 M128.026 173.600 C 128.033 174.187,129.550 177.249,129.583 176.744 C 129.592 176.603,129.244 175.703,128.809 174.744 C 128.374 173.785,128.021 173.270,128.026 173.600 M130.403 178.890 C 130.401 179.050,130.759 179.770,131.199 180.490 C 131.638 181.211,131.996 181.620,131.996 181.400 C 131.995 181.180,131.637 180.460,131.200 179.800 C 130.763 179.140,130.404 178.731,130.403 178.890 M268.350 181.700 C 267.874 182.635,267.221 183.850,266.900 184.400 C 266.339 185.359,266.343 185.367,266.990 184.600 C 267.773 183.670,269.708 180.000,269.415 180.000 C 269.306 180.000,268.827 180.765,268.350 181.700 M132.524 183.000 C 132.862 183.660,133.438 184.560,133.804 185.000 C 134.170 185.440,134.065 185.080,133.570 184.200 C 132.480 182.258,131.664 181.322,132.524 183.000 M263.883 189.044 C 263.049 190.230,262.448 191.200,262.549 191.200 C 262.829 191.200,265.716 187.181,265.548 187.025 C 265.467 186.950,264.717 187.859,263.883 189.044 M135.211 187.446 C 135.217 187.641,135.712 188.347,136.311 189.016 C 137.517 190.362,137.411 190.019,136.072 188.246 C 135.592 187.611,135.205 187.251,135.211 187.446 M139.364 193.070 C 141.479 195.914,147.626 202.254,150.700 204.762 C 154.104 207.538,153.103 206.378,149.100 202.907 C 147.065 201.143,144.106 198.192,142.525 196.350 C 137.867 190.921,137.430 190.467,139.364 193.070 M261.359 192.500 C 259.607 194.521,259.087 195.200,259.290 195.200 C 259.407 195.200,260.167 194.390,260.979 193.400 C 262.481 191.566,262.779 190.863,261.359 192.500 M256.189 198.427 C 254.655 199.983,251.870 202.536,250.000 204.103 C 244.719 208.527,244.137 209.299,249.000 205.430 C 251.106 203.754,259.551 195.611,259.189 195.604 C 259.073 195.602,257.723 196.872,256.189 198.427 M153.350 206.720 C 153.510 206.978,154.469 207.760,155.482 208.457 C 157.879 210.106,157.440 209.395,154.963 207.616 C 153.916 206.865,153.191 206.461,153.350 206.720 M241.072 210.589 C 238.192 212.419,237.133 213.256,238.787 212.393 C 240.354 211.576,244.000 209.194,244.000 208.988 C 244.000 208.721,244.068 208.683,241.072 210.589 M162.086 212.600 C 162.895 213.150,163.699 213.600,163.872 213.600 C 164.044 213.600,163.523 213.150,162.714 212.600 C 161.905 212.050,161.101 211.600,160.928 211.600 C 160.756 211.600,161.277 212.050,162.086 212.600 M235.200 214.000 C 233.990 214.639,233.141 215.171,233.313 215.181 C 233.738 215.207,237.600 213.236,237.600 212.993 C 237.600 212.726,237.655 212.703,235.200 214.000 M164.400 213.758 C 164.400 213.870,165.075 214.271,165.900 214.648 C 166.725 215.026,167.535 215.405,167.700 215.491 C 167.865 215.577,168.000 215.555,168.000 215.442 C 168.000 215.330,167.325 214.929,166.500 214.552 C 165.675 214.174,164.865 213.795,164.700 213.709 C 164.535 213.623,164.400 213.645,164.400 213.758 M169.200 216.200 C 169.750 216.514,170.380 216.772,170.600 216.772 C 170.820 216.772,170.550 216.514,170.000 216.200 C 169.450 215.886,168.820 215.628,168.600 215.628 C 168.380 215.628,168.650 215.886,169.200 216.200 M178.400 219.594 C 178.730 219.811,179.435 219.991,179.967 219.994 C 181.251 220.002,180.925 219.775,179.200 219.458 C 178.215 219.277,177.978 219.318,178.400 219.594 M220.800 219.600 C 219.976 219.864,219.941 219.926,220.600 219.954 C 221.040 219.973,221.670 219.813,222.000 219.600 C 222.701 219.147,222.214 219.147,220.800 219.600 M181.600 220.394 C 181.930 220.611,182.635 220.791,183.167 220.794 C 184.451 220.802,184.125 220.575,182.400 220.258 C 181.415 220.077,181.178 220.118,181.600 220.394 M217.400 220.400 C 216.311 220.677,216.293 220.707,217.200 220.725 C 217.750 220.735,218.560 220.589,219.000 220.400 C 219.986 219.976,219.066 219.976,217.400 220.400 M185.000 221.197 C 185.764 221.528,188.714 221.755,188.367 221.456 C 188.275 221.377,187.300 221.209,186.200 221.082 C 184.913 220.933,184.485 220.974,185.000 221.197 M212.705 221.483 C 213.202 221.579,213.922 221.575,214.305 221.475 C 214.687 221.375,214.280 221.296,213.400 221.301 C 212.520 221.305,212.207 221.387,212.705 221.483 M192.500 222.287 C 193.105 222.378,194.095 222.378,194.700 222.287 C 195.305 222.195,194.810 222.120,193.600 222.120 C 192.390 222.120,191.895 222.195,192.500 222.287 M204.900 222.291 C 205.725 222.378,207.075 222.378,207.900 222.291 C 208.725 222.205,208.050 222.134,206.400 222.134 C 204.750 222.134,204.075 222.205,204.900 222.291 M134.800 226.685 C 135.350 226.782,136.430 227.351,137.200 227.950 C 139.272 229.561,141.200 230.878,141.200 230.682 C 141.200 230.116,135.531 226.408,134.736 226.454 C 133.823 226.508,133.824 226.513,134.800 226.685 M132.000 227.400 C 131.450 227.714,131.180 227.972,131.400 227.972 C 131.620 227.972,132.250 227.714,132.800 227.400 C 133.350 227.086,133.620 226.828,133.400 226.828 C 133.180 226.828,132.550 227.086,132.000 227.400 M261.189 229.130 C 259.534 230.378,257.734 231.720,257.189 232.112 C 256.514 232.598,256.460 232.702,257.019 232.441 C 258.164 231.906,265.060 226.793,264.587 226.830 C 264.374 226.846,262.845 227.881,261.189 229.130 M265.200 226.934 C 265.200 227.037,265.781 227.324,266.491 227.572 C 267.201 227.819,267.606 227.857,267.391 227.656 C 266.935 227.229,265.200 226.658,265.200 226.934 M127.500 229.429 C 125.949 230.270,126.125 230.561,127.700 229.759 C 129.208 228.993,129.475 228.794,128.967 228.816 C 128.765 228.825,128.105 229.101,127.500 229.429 M271.600 229.779 C 271.600 229.889,272.140 230.259,272.800 230.600 C 273.460 230.941,274.000 231.131,274.000 231.021 C 274.000 230.911,273.460 230.541,272.800 230.200 C 272.140 229.859,271.600 229.669,271.600 229.779 M141.775 231.159 C 141.897 231.357,142.639 231.898,143.423 232.360 C 144.207 232.823,144.748 233.039,144.625 232.841 C 144.503 232.643,143.761 232.102,142.977 231.640 C 142.193 231.177,141.652 230.961,141.775 231.159 M122.800 232.036 C 122.136 232.579,122.069 232.715,122.600 232.440 C 123.905 231.766,124.628 231.212,124.200 231.215 C 123.980 231.217,123.350 231.586,122.800 232.036 M275.011 231.727 C 276.601 232.788,279.600 234.428,279.600 234.236 C 279.600 234.003,274.881 231.200,274.490 231.200 C 274.342 231.200,274.577 231.437,275.011 231.727 M118.600 234.635 L 117.400 235.666 118.800 234.763 C 120.596 233.604,120.601 233.600,120.167 233.602 C 119.965 233.603,119.260 234.068,118.600 234.635 M251.800 235.262 C 250.260 236.168,247.695 237.535,246.100 238.299 C 243.027 239.772,242.183 240.431,244.700 239.392 C 246.408 238.687,254.004 234.513,254.580 233.963 C 255.280 233.294,254.618 233.603,251.800 235.262 M148.800 235.622 C 149.833 236.326,152.400 237.625,152.400 237.442 C 152.400 237.233,148.805 235.197,148.450 235.206 C 148.312 235.209,148.470 235.396,148.800 235.622 M281.318 235.467 C 281.459 235.696,282.886 236.816,284.488 237.956 C 286.089 239.096,286.803 239.504,286.074 238.863 C 284.298 237.303,280.994 234.944,281.318 235.467 M114.916 237.120 C 113.770 237.934,112.825 238.741,112.816 238.913 C 112.807 239.085,113.790 238.478,115.000 237.565 C 116.210 236.651,117.200 235.836,117.200 235.752 C 117.200 235.508,117.105 235.565,114.916 237.120 M291.323 243.600 C 293.279 245.470,296.411 248.620,298.282 250.600 C 300.260 252.692,300.842 253.195,299.672 251.800 C 297.658 249.400,291.853 243.640,289.183 241.393 C 288.404 240.737,289.366 241.730,291.323 243.600 M108.975 242.100 L 107.800 243.400 109.100 242.225 C 110.312 241.130,110.584 240.800,110.275 240.800 C 110.206 240.800,109.621 241.385,108.975 242.100 M103.991 246.700 L 100.600 250.200 104.100 246.809 C 107.351 243.659,107.782 243.200,107.491 243.200 C 107.431 243.200,105.856 244.775,103.991 246.700 M228.200 245.200 C 227.696 245.417,227.622 245.544,228.000 245.544 C 228.330 245.544,228.960 245.389,229.400 245.200 C 229.904 244.983,229.978 244.856,229.600 244.856 C 229.270 244.856,228.640 245.011,228.200 245.200 M173.633 245.744 C 173.725 245.823,174.340 246.008,175.000 246.156 C 175.876 246.352,176.038 246.315,175.600 246.018 C 175.060 245.653,173.232 245.398,173.633 245.744 M225.000 246.000 C 224.496 246.217,224.422 246.344,224.800 246.344 C 225.130 246.344,225.760 246.189,226.200 246.000 C 226.704 245.783,226.778 245.656,226.400 245.656 C 226.070 245.656,225.440 245.811,225.000 246.000 M221.600 246.800 C 220.796 247.057,220.757 247.123,221.400 247.132 C 221.840 247.138,222.560 246.989,223.000 246.800 C 224.019 246.362,222.968 246.362,221.600 246.800 M180.033 247.349 C 180.125 247.431,181.100 247.601,182.200 247.728 C 183.549 247.884,183.874 247.849,183.200 247.620 C 182.201 247.280,179.718 247.068,180.033 247.349 M218.500 247.476 C 218.885 247.576,219.515 247.576,219.900 247.476 C 220.285 247.375,219.970 247.293,219.200 247.293 C 218.430 247.293,218.115 247.375,218.500 247.476 M184.433 248.148 C 184.525 248.229,185.950 248.396,187.600 248.519 C 189.824 248.684,190.186 248.652,189.000 248.394 C 187.399 248.046,184.119 247.869,184.433 248.148 M213.300 248.276 C 213.685 248.376,214.315 248.376,214.700 248.276 C 215.085 248.175,214.770 248.093,214.000 248.093 C 213.230 248.093,212.915 248.175,213.300 248.276 M195.900 249.099 C 198.375 249.169,202.425 249.169,204.900 249.099 C 207.375 249.028,205.350 248.971,200.400 248.971 C 195.450 248.971,193.425 249.028,195.900 249.099 M98.818 252.134 L 97.437 253.800 99.118 252.219 C 100.043 251.349,100.800 250.584,100.800 250.519 C 100.800 250.059,99.994 250.716,98.818 252.134 M95.755 255.881 C 94.907 256.916,94.422 257.634,94.677 257.476 C 95.221 257.140,97.755 254.000,97.482 254.000 C 97.380 254.000,96.603 254.847,95.755 255.881 M304.809 258.641 C 307.727 262.468,310.264 265.512,308.941 263.600 C 307.300 261.226,302.325 254.801,301.949 254.568 C 301.694 254.411,302.981 256.243,304.809 258.641 M92.744 259.900 C 91.593 261.289,91.106 262.000,91.304 262.000 C 91.414 262.000,91.986 261.370,92.573 260.600 C 93.663 259.171,93.795 258.632,92.744 259.900 M87.108 268.100 C 86.233 269.449,85.448 271.056,85.887 270.600 C 86.448 270.017,88.098 267.200,87.879 267.200 C 87.776 267.200,87.429 267.605,87.108 268.100 M312.600 270.000 C 312.941 270.660,313.311 271.200,313.421 271.200 C 313.531 271.200,313.341 270.660,313.000 270.000 C 312.659 269.340,312.289 268.800,312.179 268.800 C 312.069 268.800,312.259 269.340,312.600 270.000 M81.837 277.481 C 80.843 279.396,80.090 281.024,80.165 281.099 C 80.240 281.173,81.142 279.607,82.169 277.617 C 83.197 275.628,83.949 274.000,83.841 274.000 C 83.732 274.000,82.831 275.567,81.837 277.481 M315.800 275.600 C 316.141 276.260,316.511 276.800,316.621 276.800 C 316.731 276.800,316.541 276.260,316.200 275.600 C 315.859 274.940,315.489 274.400,315.379 274.400 C 315.269 274.400,315.459 274.940,315.800 275.600 M318.679 281.100 C 318.967 281.894,320.000 283.497,320.000 283.150 C 320.000 282.802,318.763 280.400,318.583 280.400 C 318.496 280.400,318.539 280.715,318.679 281.100 M79.005 283.000 C 78.672 283.770,78.128 285.030,77.795 285.800 C 77.462 286.570,77.279 287.200,77.389 287.200 C 77.499 287.200,77.862 286.570,78.195 285.800 C 78.528 285.030,79.072 283.770,79.405 283.000 C 79.738 282.230,79.921 281.600,79.811 281.600 C 79.701 281.600,79.338 282.230,79.005 283.000 M320.034 283.800 C 320.034 284.020,320.378 284.830,320.800 285.600 C 321.222 286.370,321.566 286.820,321.566 286.600 C 321.566 286.380,321.222 285.570,320.800 284.800 C 320.378 284.030,320.034 283.580,320.034 283.800 M76.465 288.617 C 75.795 290.088,75.923 290.402,76.647 289.065 C 76.986 288.440,77.188 287.854,77.096 287.763 C 77.005 287.671,76.721 288.056,76.465 288.617 M326.644 300.200 C 326.973 301.671,327.202 301.990,327.194 300.967 C 327.191 300.545,327.005 299.930,326.782 299.600 C 326.485 299.162,326.448 299.324,326.644 300.200 M70.580 305.100 C 70.451 305.705,70.177 306.613,69.972 307.119 C 69.768 307.624,69.608 308.344,69.618 308.719 C 69.627 309.093,69.873 308.734,70.164 307.920 C 70.794 306.153,71.253 304.000,70.998 304.000 C 70.897 304.000,70.709 304.495,70.580 305.100 M69.000 310.800 C 68.848 311.491,68.807 312.141,68.909 312.242 C 69.011 312.344,69.209 311.853,69.350 311.150 C 69.683 309.483,69.360 309.160,69.000 310.800 M329.858 311.200 C 330.175 312.925,330.402 313.251,330.394 311.967 C 330.391 311.435,330.211 310.730,329.994 310.400 C 329.718 309.978,329.677 310.215,329.858 311.200 M67.416 317.859 C 67.287 318.707,67.006 320.269,66.791 321.331 C 66.576 322.392,66.422 323.832,66.450 324.531 C 66.488 325.499,66.578 325.325,66.830 323.800 C 67.678 318.663,67.951 316.618,67.807 316.474 C 67.722 316.388,67.546 317.012,67.416 317.859 M331.482 318.600 C 331.609 319.700,331.777 320.675,331.856 320.767 C 332.155 321.114,331.928 318.164,331.597 317.400 C 331.374 316.885,331.333 317.313,331.482 318.600 M332.509 324.400 C 332.509 325.390,332.587 325.795,332.682 325.300 C 332.778 324.805,332.778 323.995,332.682 323.500 C 332.587 323.005,332.509 323.410,332.509 324.400 M66.109 328.000 C 66.109 328.990,66.187 329.395,66.282 328.900 C 66.378 328.405,66.378 327.595,66.282 327.100 C 66.187 326.605,66.109 327.010,66.109 328.000 M332.893 328.000 C 332.893 328.770,332.975 329.085,333.076 328.700 C 333.176 328.315,333.176 327.685,333.076 327.300 C 332.975 326.915,332.893 327.230,332.893 328.000 M333.272 331.700 L 333.200 334.000 199.621 334.000 L 66.042 334.000 65.883 331.900 L 65.724 329.800 65.762 332.000 L 65.800 334.200 199.512 334.301 C 312.830 334.386,333.257 334.317,333.436 333.850 C 333.553 333.546,333.580 332.421,333.496 331.349 L 333.344 329.400 333.272 331.700 " stroke="none" fill="#d4d4d4" fill-rule="evenodd"></path><path id="path3" d="M193.105 65.883 C 193.602 65.979,194.322 65.975,194.705 65.875 C 195.087 65.775,194.680 65.696,193.800 65.701 C 192.920 65.705,192.607 65.787,193.105 65.883 M206.100 65.876 C 206.485 65.976,207.115 65.976,207.500 65.876 C 207.885 65.775,207.570 65.693,206.800 65.693 C 206.030 65.693,205.715 65.775,206.100 65.876 M208.900 66.276 C 209.285 66.376,209.915 66.376,210.300 66.276 C 210.685 66.175,210.370 66.093,209.600 66.093 C 208.830 66.093,208.515 66.175,208.900 66.276 M247.600 81.725 C 247.600 81.824,248.261 82.409,249.068 83.025 C 249.876 83.641,250.411 83.941,250.256 83.691 C 249.940 83.179,247.600 81.447,247.600 81.725 M149.375 84.500 L 148.200 85.800 149.500 84.625 C 150.215 83.979,150.800 83.394,150.800 83.325 C 150.800 83.016,150.470 83.288,149.375 84.500 M145.178 88.300 L 143.800 89.800 145.300 88.422 C 146.125 87.663,146.800 86.988,146.800 86.922 C 146.800 86.616,146.462 86.904,145.178 88.300 M256.600 90.000 C 257.459 90.880,258.252 91.600,258.362 91.600 C 258.472 91.600,257.859 90.880,257.000 90.000 C 256.141 89.120,255.348 88.400,255.238 88.400 C 255.128 88.400,255.741 89.120,256.600 90.000 M141.178 92.700 L 139.800 94.200 141.300 92.822 C 142.125 92.063,142.800 91.388,142.800 91.322 C 142.800 91.016,142.462 91.304,141.178 92.700 M278.109 138.400 C 278.109 139.390,278.187 139.795,278.282 139.300 C 278.378 138.805,278.378 137.995,278.282 137.500 C 278.187 137.005,278.109 137.410,278.109 138.400 M278.101 149.800 C 278.105 150.680,278.187 150.993,278.283 150.495 C 278.379 149.998,278.375 149.278,278.275 148.895 C 278.175 148.513,278.096 148.920,278.101 149.800 M122.493 152.400 C 122.493 153.170,122.575 153.485,122.676 153.100 C 122.776 152.715,122.776 152.085,122.676 151.700 C 122.575 151.315,122.493 151.630,122.493 152.400 M141.400 196.000 C 142.259 196.880,143.052 197.600,143.162 197.600 C 143.272 197.600,142.659 196.880,141.800 196.000 C 140.941 195.120,140.148 194.400,140.038 194.400 C 139.928 194.400,140.541 195.120,141.400 196.000 M254.800 200.200 C 253.161 201.850,251.910 203.200,252.020 203.200 C 252.130 203.200,253.561 201.850,255.200 200.200 C 256.839 198.550,258.090 197.200,257.980 197.200 C 257.870 197.200,256.439 198.550,254.800 200.200 M148.000 202.525 C 148.000 202.594,148.585 203.179,149.300 203.825 L 150.600 205.000 149.425 203.700 C 148.330 202.488,148.000 202.216,148.000 202.525 M151.164 205.335 C 151.749 206.063,154.000 207.777,154.000 207.494 C 154.000 207.406,153.235 206.726,152.300 205.983 C 151.365 205.240,150.854 204.948,151.164 205.335 M159.600 211.379 C 159.600 211.489,160.140 211.859,160.800 212.200 C 161.460 212.541,162.000 212.731,162.000 212.621 C 162.000 212.511,161.460 212.141,160.800 211.800 C 160.140 211.459,159.600 211.269,159.600 211.379 M210.200 222.000 C 209.122 222.274,209.102 222.306,210.000 222.313 C 210.550 222.317,211.450 222.176,212.000 222.000 C 213.344 221.569,211.892 221.569,210.200 222.000 M197.682 222.696 C 199.158 222.773,201.678 222.773,203.282 222.697 C 204.887 222.621,203.680 222.558,200.600 222.558 C 197.520 222.557,196.207 222.619,197.682 222.696 M288.000 240.125 C 288.000 240.194,288.585 240.779,289.300 241.425 L 290.600 242.600 289.425 241.300 C 288.330 240.088,288.000 239.816,288.000 240.125 M295.000 246.800 C 297.192 249.000,299.075 250.800,299.185 250.800 C 299.295 250.800,297.592 249.000,295.400 246.800 C 293.208 244.600,291.325 242.800,291.215 242.800 C 291.105 242.800,292.808 244.600,295.000 246.800 M104.585 245.700 L 102.600 247.800 104.700 245.815 C 105.855 244.723,106.800 243.778,106.800 243.715 C 106.800 243.417,106.429 243.749,104.585 245.700 M215.800 247.600 C 214.781 248.038,215.832 248.038,217.200 247.600 C 218.004 247.343,218.043 247.277,217.400 247.268 C 216.960 247.262,216.240 247.411,215.800 247.600 M207.900 248.682 C 208.395 248.778,209.205 248.778,209.700 248.682 C 210.195 248.587,209.790 248.509,208.800 248.509 C 207.810 248.509,207.405 248.587,207.900 248.682 M331.256 316.000 C 331.256 316.330,331.411 316.960,331.600 317.400 C 331.817 317.904,331.944 317.978,331.944 317.600 C 331.944 317.270,331.789 316.640,331.600 316.200 C 331.383 315.696,331.256 315.622,331.256 316.000 M65.701 328.600 C 65.705 329.480,65.787 329.793,65.883 329.295 C 65.979 328.798,65.975 328.078,65.875 327.695 C 65.775 327.313,65.696 327.720,65.701 328.600 M333.293 328.400 C 333.293 329.170,333.375 329.485,333.476 329.100 C 333.576 328.715,333.576 328.085,333.476 327.700 C 333.375 327.315,333.293 327.630,333.293 328.400 " stroke="none" fill="#dddcdc" fill-rule="evenodd"></path><path id="path4" d="M197.100 65.498 C 198.915 65.572,201.885 65.572,203.700 65.498 C 205.515 65.423,204.030 65.363,200.400 65.363 C 196.770 65.363,195.285 65.423,197.100 65.498 M188.800 66.000 L 187.000 66.280 188.600 66.293 C 189.480 66.300,190.740 66.168,191.400 66.000 C 193.000 65.593,191.419 65.593,188.800 66.000 M209.600 66.020 C 212.014 66.450,213.906 66.413,211.800 65.977 C 210.920 65.795,209.660 65.658,209.000 65.673 C 208.100 65.693,208.250 65.780,209.600 66.020 M184.200 66.800 C 183.122 67.074,183.102 67.106,184.000 67.113 C 184.550 67.117,185.450 66.976,186.000 66.800 C 187.344 66.369,185.892 66.369,184.200 66.800 M214.400 66.800 C 214.950 66.976,215.850 67.117,216.400 67.113 C 217.298 67.106,217.278 67.074,216.200 66.800 C 214.508 66.369,213.056 66.369,214.400 66.800 M180.800 67.600 C 179.996 67.857,179.957 67.923,180.600 67.932 C 181.040 67.938,181.760 67.789,182.200 67.600 C 183.219 67.162,182.168 67.162,180.800 67.600 M218.200 67.600 C 218.640 67.789,219.360 67.938,219.800 67.932 C 220.443 67.923,220.404 67.857,219.600 67.600 C 218.232 67.162,217.181 67.162,218.200 67.600 M174.838 69.418 C 170.889 70.750,163.779 73.912,164.073 74.206 C 164.148 74.281,165.664 73.640,167.441 72.782 C 169.219 71.923,172.637 70.566,175.037 69.766 C 177.436 68.966,179.475 68.242,179.567 68.156 C 179.975 67.774,178.713 68.111,174.838 69.418 M221.200 68.382 C 221.530 68.605,222.145 68.791,222.567 68.794 C 223.590 68.802,223.271 68.573,221.800 68.244 C 220.924 68.048,220.762 68.085,221.200 68.382 M223.600 68.946 C 223.600 69.133,227.389 70.408,227.875 70.384 C 228.346 70.362,225.992 69.378,224.700 69.057 C 224.095 68.907,223.600 68.857,223.600 68.946 M230.440 71.373 C 230.562 71.496,232.514 72.501,234.776 73.607 C 240.374 76.345,246.332 80.224,250.399 83.777 L 251.798 85.000 250.599 83.655 C 249.940 82.915,248.770 81.878,248.000 81.352 C 247.230 80.825,245.178 79.409,243.440 78.204 C 239.775 75.662,229.143 70.076,230.440 71.373 M159.886 76.340 C 158.834 76.960,157.754 77.703,157.486 77.991 C 156.988 78.527,159.501 77.139,161.234 75.921 C 162.734 74.866,162.004 75.094,159.886 76.340 M154.600 79.856 C 149.880 83.177,142.787 89.893,139.594 94.066 C 138.864 95.020,139.499 94.450,141.004 92.800 C 145.273 88.120,149.485 84.192,153.300 81.332 C 155.225 79.889,156.800 78.639,156.800 78.554 C 156.800 78.316,156.730 78.357,154.600 79.856 M255.211 88.204 C 257.075 90.186,258.682 91.755,258.782 91.689 C 258.882 91.623,257.357 90.001,255.393 88.085 L 251.822 84.600 255.211 88.204 M259.200 92.170 C 259.200 92.320,260.153 93.648,261.318 95.121 C 262.483 96.595,263.953 98.573,264.584 99.518 C 265.216 100.462,265.907 101.343,266.120 101.474 C 266.333 101.606,265.784 100.653,264.900 99.357 C 263.003 96.575,259.200 91.780,259.200 92.170 M136.702 97.900 C 133.643 102.156,130.868 106.800,131.384 106.800 C 131.494 106.800,131.930 106.125,132.354 105.300 C 132.778 104.475,134.300 102.045,135.738 99.900 C 138.478 95.810,139.036 94.654,136.702 97.900 M267.290 103.600 C 267.853 104.590,268.710 106.165,269.197 107.100 C 270.094 108.826,270.594 109.375,270.108 108.100 C 269.671 106.956,267.178 102.632,266.705 102.200 C 266.465 101.980,266.728 102.610,267.290 103.600 M129.337 110.300 C 127.452 114.422,126.335 117.268,126.528 117.461 C 126.614 117.547,127.011 116.759,127.410 115.709 C 127.809 114.659,128.817 112.315,129.650 110.500 C 130.482 108.685,131.071 107.200,130.959 107.200 C 130.846 107.200,130.117 108.595,129.337 110.300 M272.910 115.000 C 273.487 117.022,274.935 120.798,275.079 120.655 C 275.270 120.463,273.315 114.771,272.943 114.435 C 272.799 114.306,272.785 114.560,272.910 115.000 M126.032 118.676 C 126.014 119.158,125.820 119.664,125.600 119.800 C 125.380 119.936,125.214 120.442,125.232 120.924 C 125.252 121.477,125.336 121.579,125.461 121.200 C 125.570 120.870,125.846 120.213,126.076 119.739 C 126.305 119.266,126.396 118.636,126.278 118.339 C 126.154 118.029,126.050 118.172,126.032 118.676 M275.206 121.833 C 275.209 122.255,275.395 122.870,275.618 123.200 C 275.915 123.638,275.952 123.476,275.756 122.600 C 275.427 121.129,275.198 120.810,275.206 121.833 M124.250 124.450 C 123.917 126.117,124.240 126.440,124.600 124.800 C 124.752 124.109,124.793 123.459,124.691 123.358 C 124.589 123.256,124.391 123.747,124.250 124.450 M276.068 124.600 C 276.062 125.040,276.211 125.760,276.400 126.200 C 276.838 127.219,276.838 126.168,276.400 124.800 C 276.143 123.996,276.077 123.957,276.068 124.600 M123.422 127.822 C 123.272 128.625,123.228 129.362,123.326 129.460 C 123.424 129.557,123.627 128.981,123.778 128.178 C 123.928 127.375,123.972 126.638,123.874 126.540 C 123.776 126.443,123.573 127.019,123.422 127.822 M276.828 128.233 C 276.844 128.875,277.016 129.760,277.210 130.200 C 277.447 130.734,277.486 130.402,277.327 129.200 C 277.046 127.080,276.788 126.580,276.828 128.233 M122.633 132.433 C 122.483 133.566,122.441 134.574,122.539 134.672 C 122.637 134.771,122.845 133.928,123.000 132.800 C 123.155 131.672,123.198 130.664,123.094 130.561 C 122.991 130.458,122.784 131.300,122.633 132.433 M277.673 132.600 C 277.658 133.260,277.795 134.520,277.977 135.400 C 278.413 137.506,278.450 135.614,278.020 133.200 C 277.780 131.850,277.693 131.700,277.673 132.600 M122.170 144.200 C 122.171 149.040,122.229 150.965,122.299 148.478 C 122.369 145.991,122.369 142.031,122.298 139.678 C 122.228 137.325,122.170 139.360,122.170 144.200 M278.558 144.200 C 278.558 147.280,278.621 148.487,278.697 146.882 C 278.773 145.278,278.773 142.758,278.696 141.282 C 278.619 139.807,278.557 141.120,278.558 144.200 M277.787 153.787 C 277.631 155.244,277.589 156.523,277.695 156.628 C 277.801 156.734,278.010 155.623,278.160 154.160 C 278.310 152.697,278.351 151.418,278.252 151.318 C 278.152 151.219,277.943 152.329,277.787 153.787 M122.470 154.200 C 122.457 154.640,122.595 155.720,122.777 156.600 C 123.055 157.945,123.108 158.009,123.107 157.000 C 123.105 155.599,122.508 152.970,122.470 154.200 M277.056 158.484 C 276.921 158.988,276.828 159.850,276.849 160.400 C 276.872 160.989,277.031 160.671,277.236 159.625 C 277.603 157.752,277.473 156.927,277.056 158.484 M123.462 160.200 C 123.596 161.080,123.772 161.875,123.853 161.967 C 124.156 162.310,123.929 160.168,123.581 159.400 C 123.329 158.842,123.293 159.085,123.462 160.200 M124.244 163.800 C 124.573 165.271,124.802 165.590,124.794 164.567 C 124.791 164.145,124.605 163.530,124.382 163.200 C 124.085 162.762,124.048 162.924,124.244 163.800 M275.449 165.415 C 275.312 165.773,275.215 166.366,275.234 166.733 C 275.253 167.100,275.427 166.869,275.621 166.220 C 275.998 164.958,275.865 164.333,275.449 165.415 M125.044 166.600 C 125.373 168.071,125.602 168.390,125.594 167.367 C 125.591 166.945,125.405 166.330,125.182 166.000 C 124.885 165.562,124.848 165.724,125.044 166.600 M126.400 170.929 C 126.400 171.432,128.500 176.433,128.649 176.285 C 128.731 176.202,128.331 174.979,127.759 173.567 C 126.747 171.066,126.400 170.393,126.400 170.929 M271.800 175.861 C 271.464 176.665,271.282 177.415,271.395 177.528 C 271.508 177.641,271.600 177.635,271.600 177.516 C 271.600 177.396,271.872 176.646,272.205 175.849 C 272.538 175.052,272.721 174.400,272.611 174.400 C 272.501 174.400,272.136 175.058,271.800 175.861 M128.910 177.100 C 128.997 177.265,129.468 178.275,129.956 179.344 C 130.445 180.413,130.923 181.210,131.019 181.115 C 131.215 180.919,129.231 176.800,128.941 176.800 C 128.837 176.800,128.824 176.935,128.910 177.100 M269.455 180.800 C 268.672 182.340,268.097 183.600,268.177 183.600 C 268.403 183.600,269.969 180.849,270.594 179.353 C 271.533 177.106,270.965 177.827,269.455 180.800 M131.224 181.722 C 131.100 183.420,143.303 199.571,145.666 200.835 C 146.083 201.059,145.233 200.017,143.776 198.521 C 139.942 194.583,137.051 190.659,131.724 182.160 C 131.461 181.742,131.236 181.545,131.224 181.722 M266.659 185.583 C 265.201 187.786,265.324 188.101,266.829 186.023 C 267.506 185.089,267.982 184.249,267.888 184.155 C 267.794 184.061,267.241 184.704,266.659 185.583 M262.685 191.500 C 259.644 195.583,253.612 202.076,251.257 203.800 C 250.356 204.460,249.615 205.148,249.609 205.329 C 249.564 206.909,259.832 196.173,264.174 190.100 C 266.641 186.649,265.497 187.725,262.685 191.500 M147.420 202.755 C 149.285 204.498,155.750 209.416,157.200 210.195 C 158.236 210.751,157.136 209.834,154.800 208.194 C 153.590 207.344,151.492 205.693,150.139 204.524 C 148.785 203.356,147.534 202.400,147.359 202.400 C 147.183 202.400,147.211 202.560,147.420 202.755 M246.400 207.647 C 243.463 209.892,237.318 213.639,234.606 214.839 C 232.696 215.683,232.102 216.245,233.803 215.599 C 235.714 214.872,243.793 210.317,244.400 209.624 C 244.510 209.498,245.635 208.626,246.900 207.685 C 248.165 206.744,249.200 205.890,249.200 205.787 C 249.200 205.507,249.198 205.509,246.400 207.647 M160.400 212.179 C 160.400 212.289,160.940 212.659,161.600 213.000 C 162.260 213.341,162.800 213.531,162.800 213.421 C 162.800 213.311,162.260 212.941,161.600 212.600 C 160.940 212.259,160.400 212.069,160.400 212.179 M165.411 214.934 C 166.296 215.532,167.600 216.058,167.600 215.817 C 167.600 215.637,165.198 214.400,164.850 214.400 C 164.724 214.400,164.977 214.640,165.411 214.934 M168.000 216.115 C 168.000 216.391,173.259 218.474,173.457 218.276 C 173.544 218.189,172.668 217.748,171.508 217.297 C 170.349 216.847,169.085 216.351,168.700 216.196 C 168.315 216.041,168.000 216.005,168.000 216.115 M175.000 218.951 C 176.399 219.556,178.400 220.087,178.400 219.854 C 178.400 219.667,174.611 218.392,174.125 218.416 C 173.946 218.424,174.340 218.665,175.000 218.951 M221.453 219.830 C 220.382 220.122,219.405 220.462,219.282 220.585 C 218.961 220.906,221.552 220.364,223.200 219.765 C 225.009 219.108,223.959 219.147,221.453 219.830 M178.833 220.144 C 178.925 220.223,179.540 220.408,180.200 220.556 C 181.076 220.752,181.238 220.715,180.800 220.418 C 180.260 220.053,178.432 219.798,178.833 220.144 M181.633 220.947 C 181.725 221.028,182.520 221.204,183.400 221.338 C 184.515 221.507,184.758 221.471,184.200 221.219 C 183.432 220.871,181.290 220.644,181.633 220.947 M216.706 221.028 C 216.581 221.153,215.606 221.402,214.539 221.581 C 213.218 221.802,212.982 221.915,213.800 221.935 C 214.460 221.951,215.900 221.715,217.000 221.409 C 218.351 221.034,218.665 220.845,217.967 220.827 C 217.398 220.812,216.831 220.902,216.706 221.028 M185.233 221.746 C 185.325 221.826,186.390 221.994,187.600 222.119 C 189.020 222.266,189.446 222.229,188.800 222.013 C 187.809 221.683,184.913 221.465,185.233 221.746 M193.000 222.850 C 196.629 223.175,204.683 223.176,208.000 222.853 C 209.430 222.714,206.010 222.600,200.400 222.600 C 194.790 222.600,191.460 222.713,193.000 222.850 M133.000 226.378 C 131.063 227.295,131.324 227.442,133.369 226.587 C 135.021 225.897,135.251 225.974,138.658 228.359 C 141.154 230.106,140.459 229.360,137.611 227.234 C 135.102 225.362,135.135 225.368,133.000 226.378 M265.600 226.600 C 266.150 226.914,266.780 227.172,267.000 227.172 C 267.220 227.172,266.950 226.914,266.400 226.600 C 265.850 226.286,265.220 226.028,265.000 226.028 C 264.780 226.028,265.050 226.286,265.600 226.600 M262.600 227.425 C 259.576 229.934,252.622 234.324,247.121 237.195 C 246.088 237.735,245.310 238.243,245.392 238.326 C 245.547 238.480,249.033 236.638,253.615 233.980 C 255.881 232.666,263.079 227.735,264.180 226.743 C 265.107 225.907,263.693 226.517,262.600 227.425 M127.419 228.818 C 125.670 229.689,124.050 230.594,123.819 230.830 C 123.589 231.066,125.093 230.438,127.163 229.434 C 129.232 228.430,131.017 227.516,131.129 227.404 C 131.673 226.861,130.306 227.382,127.419 228.818 M267.608 227.329 C 267.714 227.427,270.140 228.696,273.000 230.148 C 275.860 231.600,277.840 232.506,277.400 232.161 C 276.111 231.150,266.756 226.534,267.608 227.329 M140.803 229.896 C 140.805 230.172,141.780 230.843,144.300 232.304 C 146.010 233.295,145.193 232.508,143.000 231.053 C 141.790 230.249,140.801 229.729,140.803 229.896 M121.200 232.400 C 120.210 233.058,119.539 233.597,119.709 233.598 C 120.057 233.600,123.200 231.574,123.200 231.347 C 123.200 231.092,123.042 231.175,121.200 232.400 M146.200 233.396 C 147.094 234.139,149.628 235.509,149.000 234.910 C 148.780 234.700,147.880 234.124,147.000 233.630 C 146.120 233.135,145.760 233.030,146.200 233.396 M115.600 235.994 C 114.390 236.848,112.590 238.288,111.600 239.194 C 110.315 240.371,110.667 240.178,112.834 238.521 C 114.503 237.244,116.393 235.805,117.034 235.322 C 118.989 233.850,117.941 234.341,115.600 235.994 M280.800 234.496 C 280.910 234.609,282.800 236.053,285.000 237.706 C 291.012 242.223,300.343 251.441,303.484 255.967 C 303.548 256.058,303.687 256.046,303.794 255.940 C 304.407 255.326,291.015 241.812,285.939 237.922 C 283.088 235.738,280.002 233.680,280.800 234.496 M149.800 235.539 C 150.339 236.077,158.417 240.117,158.595 239.938 C 158.673 239.861,156.636 238.749,154.068 237.469 C 151.501 236.188,149.580 235.320,149.800 235.539 M242.000 239.616 C 240.790 240.248,239.930 240.774,240.088 240.783 C 240.510 240.808,244.800 238.810,244.800 238.588 C 244.800 238.243,244.217 238.457,242.000 239.616 M159.400 240.304 C 159.925 240.778,163.979 242.407,164.553 242.375 C 165.025 242.348,164.719 242.205,161.200 240.813 C 159.990 240.334,159.180 240.105,159.400 240.304 M106.127 243.778 C 97.905 251.417,88.479 263.855,82.922 274.400 C 82.144 275.875,81.904 276.567,82.367 276.000 C 82.815 275.450,83.186 274.879,83.191 274.732 C 83.208 274.215,87.226 267.498,89.690 263.865 C 94.887 256.205,103.693 246.006,108.350 242.255 C 109.093 241.657,109.618 241.084,109.517 240.983 C 109.416 240.882,107.891 242.140,106.127 243.778 M235.200 242.400 C 234.210 242.815,233.670 243.152,234.000 243.148 C 234.672 243.140,238.028 241.663,237.400 241.652 C 237.180 241.648,236.190 241.985,235.200 242.400 M231.600 243.600 C 230.776 243.864,230.741 243.926,231.400 243.954 C 231.840 243.973,232.470 243.813,232.800 243.600 C 233.501 243.147,233.014 243.147,231.600 243.600 M170.400 244.382 C 170.730 244.605,171.345 244.791,171.767 244.794 C 172.790 244.802,172.471 244.573,171.000 244.244 C 170.124 244.048,169.962 244.085,170.400 244.382 M173.200 245.194 C 173.530 245.411,174.235 245.591,174.767 245.594 C 176.051 245.602,175.725 245.375,174.000 245.058 C 173.015 244.877,172.778 244.918,173.200 245.194 M226.000 245.200 C 225.196 245.457,225.157 245.523,225.800 245.532 C 226.240 245.538,226.960 245.389,227.400 245.200 C 228.419 244.762,227.368 244.762,226.000 245.200 M176.400 245.994 C 176.730 246.211,177.435 246.391,177.967 246.394 C 179.251 246.402,178.925 246.175,177.200 245.858 C 176.215 245.677,175.978 245.718,176.400 245.994 M222.600 246.000 C 221.511 246.277,221.493 246.307,222.400 246.325 C 222.950 246.335,223.760 246.189,224.200 246.000 C 225.186 245.576,224.266 245.576,222.600 246.000 M180.000 246.800 C 180.550 246.976,181.450 247.117,182.000 247.113 C 182.898 247.106,182.878 247.074,181.800 246.800 C 180.108 246.369,178.656 246.369,180.000 246.800 M218.600 246.800 L 217.000 247.086 218.400 247.115 C 219.170 247.131,220.160 246.989,220.600 246.800 C 221.543 246.395,220.862 246.395,218.600 246.800 M184.600 247.589 C 185.816 247.909,189.473 248.122,189.167 247.855 C 189.075 247.775,187.740 247.611,186.200 247.491 C 184.502 247.359,183.872 247.398,184.600 247.589 M213.600 247.600 L 211.800 247.880 213.400 247.912 C 214.280 247.929,215.360 247.789,215.800 247.600 C 216.727 247.202,216.161 247.202,213.600 247.600 M191.200 248.457 C 192.190 248.613,196.240 248.730,200.200 248.716 C 209.443 248.684,208.126 248.477,197.600 248.307 C 193.090 248.234,190.210 248.302,191.200 248.457 M208.505 248.287 C 209.114 248.379,210.014 248.377,210.505 248.282 C 210.997 248.187,210.500 248.111,209.400 248.114 C 208.300 248.117,207.897 248.195,208.505 248.287 M305.360 258.300 C 306.151 259.345,308.084 262.135,309.656 264.500 C 311.229 266.865,312.590 268.800,312.681 268.800 C 312.876 268.800,312.792 268.657,310.443 265.000 C 308.255 261.595,304.452 256.400,304.146 256.400 C 304.024 256.400,304.570 257.255,305.360 258.300 M313.359 270.300 C 314.089 271.684,315.170 273.099,315.187 272.691 C 315.202 272.341,313.177 269.200,312.937 269.200 C 312.850 269.200,313.040 269.695,313.359 270.300 M315.200 273.350 C 315.200 273.726,317.310 277.223,317.452 277.082 C 317.627 276.907,315.635 273.200,315.366 273.200 C 315.275 273.200,315.200 273.267,315.200 273.350 M79.986 279.901 C 79.145 281.587,79.140 281.600,79.347 281.600 C 79.605 281.600,80.842 279.108,80.669 278.936 C 80.595 278.862,80.288 279.296,79.986 279.901 M318.449 279.400 C 319.145 281.154,320.494 283.639,320.660 283.473 C 320.772 283.361,320.381 282.399,319.790 281.335 C 318.766 279.490,318.109 278.543,318.449 279.400 M78.000 283.684 C 78.000 283.804,77.728 284.554,77.395 285.351 C 77.062 286.148,76.879 286.800,76.989 286.800 C 77.306 286.800,78.433 283.900,78.205 283.672 C 78.092 283.559,78.000 283.565,78.000 283.684 M321.716 286.100 C 321.827 286.375,322.686 288.535,323.625 290.900 C 324.565 293.265,325.401 295.132,325.485 295.048 C 325.678 294.855,321.986 285.600,321.716 285.600 C 321.605 285.600,321.605 285.825,321.716 286.100 M74.630 291.830 C 73.603 294.397,72.830 296.563,72.911 296.644 C 72.992 296.725,73.897 294.690,74.921 292.121 C 75.946 289.552,76.720 287.386,76.641 287.307 C 76.562 287.229,75.657 289.264,74.630 291.830 M326.154 297.378 C 326.308 297.806,326.720 299.028,327.069 300.094 C 327.417 301.159,327.778 301.955,327.871 301.862 C 328.074 301.660,326.539 297.192,326.147 296.844 C 325.996 296.710,325.999 296.950,326.154 297.378 M69.891 305.484 C 69.126 307.878,68.626 310.276,68.956 309.964 C 69.258 309.678,70.807 303.874,70.629 303.695 C 70.559 303.626,70.227 304.431,69.891 305.484 M329.606 308.233 C 329.609 308.655,329.795 309.270,330.018 309.600 C 330.315 310.038,330.352 309.876,330.156 309.000 C 329.827 307.529,329.598 307.210,329.606 308.233 M68.250 311.650 C 67.917 313.317,68.240 313.640,68.600 312.000 C 68.752 311.309,68.793 310.659,68.691 310.558 C 68.589 310.456,68.391 310.947,68.250 311.650 M330.431 310.800 C 330.384 311.652,331.722 317.038,331.867 316.580 C 331.932 316.371,331.644 314.850,331.225 313.200 C 330.806 311.550,330.449 310.470,330.431 310.800 M67.649 314.200 C 67.616 314.640,67.496 315.450,67.383 316.000 L 67.177 317.000 67.606 316.019 C 67.842 315.479,67.961 314.669,67.872 314.219 C 67.713 313.421,67.707 313.421,67.649 314.200 M66.893 318.400 C 66.893 319.170,66.975 319.485,67.076 319.100 C 67.176 318.715,67.176 318.085,67.076 317.700 C 66.975 317.315,66.893 317.630,66.893 318.400 M332.040 318.633 C 332.062 319.275,332.233 320.250,332.420 320.800 C 332.649 321.474,332.684 321.149,332.528 319.800 C 332.269 317.550,331.979 316.859,332.040 318.633 M65.840 324.240 C 65.690 325.703,65.649 326.982,65.748 327.082 C 65.848 327.181,66.057 326.071,66.213 324.613 C 66.369 323.156,66.411 321.877,66.305 321.772 C 66.199 321.666,65.990 322.777,65.840 324.240 M332.847 323.433 C 332.873 324.295,333.039 325.540,333.215 326.200 C 333.418 326.956,333.454 326.438,333.315 324.800 C 333.067 321.886,332.775 321.031,332.847 323.433 M65.373 331.499 L 65.400 334.600 199.600 334.600 L 333.800 334.600 333.830 331.600 L 333.861 328.600 333.713 331.500 L 333.565 334.400 199.599 334.400 L 65.634 334.400 65.490 331.399 L 65.346 328.397 65.373 331.499 " stroke="none" fill="#ececec" fill-rule="evenodd"></path></g></svg>