<svg xmlns="http://www.w3.org/2000/svg" xmlns:xlink="http://www.w3.org/1999/xlink" version="1.1" width="1000" height="1000" viewBox="0 0 1000 1000" xml:space="preserve">
<desc>Created with Fabric.js 3.5.0</desc>
<defs>
</defs>
<rect x="0" y="0" width="100%" height="100%" fill="#ffffff"/>
<g transform="matrix(2.5024 0 0 2.5024 500.1203 501.3302)" id="332555">
<g style="" vector-effect="non-scaling-stroke">
		<g transform="matrix(1 0 0 1 -0.4 -0.0304)" id="path0">
<path style="stroke: none; stroke-width: 1; stroke-dasharray: none; stroke-linecap: butt; stroke-dashoffset: 0; stroke-linejoin: miter; stroke-miterlimit: 4; is-custom-font: none; font-file-url: none; fill: rgb(167,167,167); fill-rule: evenodd; opacity: 1;" transform=" translate(-199.6, -199.9695)" d="M 192.2 66.462 C 152.759 71.446 124.364 101.951 122.873 140.94 C 120.464 203.922 188.489 243.671 241.588 210.309 C 283.329 184.082 290.333 125.601 256.013 89.865 C 239.462 72.63 214.842 63.601 192.2 66.462 M 129 229.141 C 110.321 238.16 94.697 254.043 83.102 275.8 C 80.817 280.086 80.279 281.183 77.602 287 C 75.196 292.228 72.141 300.695 70.675 306.2 C 70.558 306.64 70.023 308.62 69.486 310.6 C 68.58 313.944 68.281 315.364 67.191 321.5 C 66.668 324.448 66.008 330.562 66.003 332.5 L 66 334 L 199.6 334 L 333.2 334 L 333.2 332.264 C 333.2 324.591 328.615 303.85 325.228 296.2 C 325.033 295.76 324.39 294.14 323.8 292.6 C 312.209 262.381 290.741 237.948 266.742 227.661 L 264.885 226.865 L 261.476 229.377 C 256.565 232.997 248.961 237.444 243.837 239.693 C 241.397 240.764 239.04 241.813 238.6 242.022 C 238.16 242.232 236.18 242.953 234.2 243.623 C 204.562 253.657 172.418 250.167 146.2 234.067 C 142.539 231.818 141.386 231.033 137.763 228.324 C 135.125 226.35 134.698 226.39 129 229.141" stroke-linecap="round"/>
</g>
		<g transform="matrix(1 0 0 1 0 0)" id="path1">
<path style="stroke: none; stroke-width: 1; stroke-dasharray: none; stroke-linecap: butt; stroke-dashoffset: 0; stroke-linejoin: miter; stroke-miterlimit: 4; is-custom-font: none; font-file-url: none; fill: rgb(224,224,224); fill-rule: evenodd; opacity: 1;" transform=" translate(-200, -200)" d="M 0 200 L 0 400 L 200 400 L 400 400 L 400 200 L 400 0 L 200 0 L 0 0 L 0 200 M 214 66.357 C 225.345 68.62 235.519 72.713 243.423 78.192 C 245.17 79.403 247.23 80.82 248 81.34 C 252.293 84.237 261.582 94.358 265.952 100.898 C 288.267 134.296 280.397 182.14 248.6 206.394 C 246.84 207.736 245.126 209.06 244.791 209.336 C 235.211 217.213 216.244 223.018 200.2 222.982 C 162.437 222.899 131.397 197.415 123.354 159.893 C 120.897 148.427 122.009 128.466 125.587 119.8 C 125.769 119.36 126.396 117.629 126.98 115.952 C 131.316 103.52 143.44 87.46 153.784 80.448 C 154.673 79.845 156.48 78.623 157.8 77.731 C 173.027 67.441 196.063 62.779 214 66.357 M 138.588 227.966 C 175.138 255.123 225.673 255.217 261.6 228.194 C 264.871 225.734 264.657 225.726 270.523 228.532 C 298.058 241.707 320.41 272.204 330.537 310.418 C 332.493 317.798 334.198 329.05 333.929 332.8 L 333.8 334.6 L 199.6 334.6 L 65.4 334.6 L 65.272 332.6 C 65.135 330.471 65.754 324.045 66.447 320.4 C 74.602 277.493 99.79 240.889 130.4 227.462 C 135.565 225.197 134.797 225.15 138.588 227.966" stroke-linecap="round"/>
</g>
		<g transform="matrix(1 0 0 1 -0.3656 0.0446)" id="path2">
<path style="stroke: none; stroke-width: 1; stroke-dasharray: none; stroke-linecap: butt; stroke-dashoffset: 0; stroke-linejoin: miter; stroke-miterlimit: 4; is-custom-font: none; font-file-url: none; fill: rgb(220,220,220); fill-rule: evenodd; opacity: 1;" transform=" translate(-199.6344, -200.0446)" d="M 197.7 65.897 C 199.185 65.974 201.615 65.974 203.1 65.897 C 204.585 65.82 203.37 65.757 200.4 65.757 C 197.43 65.757 196.215 65.82 197.7 65.897 M 189.501 66.389 C 188.017 66.54 186.693 66.773 186.559 66.907 C 186.293 67.174 189.832 66.897 193 66.405 C 195.578 66.004 193.377 65.994 189.501 66.389 M 206.5 66.276 C 206.885 66.376 207.515 66.376 207.9 66.276 C 208.285 66.175 207.97 66.093 207.2 66.093 C 206.43 66.093 206.115 66.175 206.5 66.276 M 210.305 66.683 C 210.802 66.779 211.522 66.775 211.905 66.675 C 212.287 66.575 211.88 66.496 211 66.501 C 210.12 66.505 209.807 66.587 210.305 66.683 M 183 67.61 C 182.466 67.847 182.798 67.886 184 67.727 C 184.99 67.596 185.875 67.424 185.967 67.344 C 186.314 67.043 183.764 67.272 183 67.61 M 218.833 68.144 C 218.925 68.223 219.54 68.408 220.2 68.556 C 221.076 68.752 221.238 68.715 220.8 68.418 C 220.26 68.053 218.432 67.798 218.833 68.144 M 174.119 70.162 C 173.415 70.418 172.716 70.751 172.565 70.902 C 172.263 71.204 174.036 70.716 175.6 70.066 C 176.962 69.5 175.715 69.581 174.119 70.162 M 227.2 70.866 C 228.738 71.505 230.539 72.006 230.247 71.714 C 229.917 71.383 227.135 70.406 226.6 70.431 C 226.38 70.442 226.65 70.638 227.2 70.866 M 232.433 72.953 C 232.841 73.327 238.4 75.989 238.4 75.81 C 238.4 75.587 232.978 72.8 232.543 72.8 C 232.391 72.8 232.342 72.869 232.433 72.953 M 161.6 76.036 C 160.936 76.579 160.869 76.715 161.4 76.44 C 162.705 75.766 163.428 75.212 163 75.215 C 162.78 75.217 162.15 75.586 161.6 76.036 M 238.8 76.135 C 238.8 76.237 239.401 76.675 240.135 77.108 C 240.869 77.541 241.994 78.211 242.635 78.595 L 243.8 79.295 L 242.8 78.467 C 241.657 77.521 238.8 75.856 238.8 76.135 M 157.945 78.269 C 154.659 80.518 151.6 82.804 151.6 83.011 C 151.6 83.112 153.297 81.982 155.37 80.498 C 157.444 79.014 159.469 77.586 159.87 77.324 C 160.272 77.061 160.485 76.836 160.345 76.824 C 160.205 76.811 159.125 77.461 157.945 78.269 M 244.2 79.488 C 244.42 79.718 246.427 81.365 248.659 83.148 C 250.892 84.932 254.574 88.328 256.841 90.696 C 259.108 93.063 260.459 94.37 259.844 93.6 C 257.765 90.999 252.334 85.605 249.458 83.284 C 246.602 80.979 243.445 78.7 244.2 79.488 M 146.323 87.7 C 143.816 90.175 140.99 93.19 140.044 94.4 C 138.465 96.419 138.515 96.386 140.65 94 C 141.93 92.57 144.872 89.556 147.188 87.302 C 149.505 85.048 151.283 83.203 151.141 83.202 C 150.999 83.201 148.831 85.225 146.323 87.7 M 262.6 97.6 C 263.616 98.92 264.537 100 264.647 100 C 264.757 100 264.016 98.92 263 97.6 C 261.984 96.28 261.063 95.2 260.953 95.2 C 260.843 95.2 261.584 96.28 262.6 97.6 M 137.119 98.1 C 135.957 99.648 135.496 100.4 135.709 100.4 C 135.794 100.4 136.446 99.59 137.157 98.6 C 138.632 96.546 138.6 96.127 137.119 98.1 M 267.294 104.776 C 268.428 106.757 269.413 108.32 269.483 108.25 C 269.657 108.076 265.994 101.643 265.572 101.382 C 265.386 101.268 266.161 102.794 267.294 104.776 M 133.26 104.027 C 131.862 106.275 131.54 107.283 132.822 105.4 C 133.83 103.918 134.873 102 134.67 102 C 134.587 102 133.953 102.912 133.26 104.027 M 130.604 108.869 C 130.055 110.007 129.671 111.004 129.75 111.084 C 129.83 111.163 130.213 110.547 130.601 109.714 C 130.989 108.881 131.469 107.885 131.667 107.5 C 131.866 107.115 131.932 106.8 131.815 106.8 C 131.698 106.8 131.153 107.731 130.604 108.869 M 269.93 109.5 C 270.097 109.885 270.564 110.972 270.967 111.917 C 271.37 112.861 271.775 113.558 271.867 113.466 C 272.056 113.277 270.073 108.8 269.801 108.8 C 269.705 108.8 269.763 109.115 269.93 109.5 M 129.199 111.633 C 129.198 111.725 128.655 113.132 127.991 114.759 C 127.328 116.387 126.853 117.786 126.936 117.869 C 127.018 117.952 127.645 116.628 128.327 114.927 C 129.01 113.227 129.486 111.752 129.384 111.651 C 129.283 111.55 129.199 111.542 129.199 111.633 M 274.644 121.4 C 274.973 122.871 275.202 123.19 275.194 122.167 C 275.191 121.745 275.005 121.13 274.782 120.8 C 274.485 120.362 274.448 120.524 274.644 121.4 M 276.273 128 C 276.404 128.99 276.576 129.875 276.656 129.967 C 276.957 130.314 276.728 127.764 276.39 127 C 276.153 126.466 276.114 126.798 276.273 128 M 277.099 133 C 277.216 134.54 277.377 135.875 277.456 135.967 C 277.734 136.288 277.517 132.189 277.203 131.2 C 277.019 130.619 276.975 131.373 277.099 133 M 122.656 136.245 C 122.515 137.272 122.43 140.292 122.467 142.956 L 122.534 147.8 L 122.806 141.2 C 123.095 134.189 123.067 133.248 122.656 136.245 M 277.709 138 C 277.709 138.99 277.787 139.395 277.882 138.9 C 277.978 138.405 277.978 137.595 277.882 137.1 C 277.787 136.605 277.709 137.01 277.709 138 M 278.15 144.2 C 278.151 146.62 278.216 147.558 278.296 146.285 C 278.376 145.012 278.375 143.032 278.294 141.885 C 278.214 140.738 278.149 141.78 278.15 144.2 M 122.509 149.6 C 122.509 150.59 122.587 150.995 122.682 150.5 C 122.778 150.005 122.778 149.195 122.682 148.7 C 122.587 148.205 122.509 148.61 122.509 149.6 M 277.709 150.4 C 277.709 151.39 277.787 151.795 277.882 151.3 C 277.978 150.805 277.978 149.995 277.882 149.5 C 277.787 149.005 277.709 149.41 277.709 150.4 M 122.893 153.2 C 122.893 153.97 122.975 154.285 123.076 153.9 C 123.176 153.515 123.176 152.885 123.076 152.5 C 122.975 152.115 122.893 152.43 122.893 153.2 M 277.309 154.8 C 277.309 155.79 277.387 156.195 277.482 155.7 C 277.578 155.205 277.578 154.395 277.482 153.9 C 277.387 153.405 277.309 153.81 277.309 154.8 M 123.24 156.233 C 123.262 156.875 123.433 157.85 123.62 158.4 C 123.849 159.074 123.884 158.749 123.728 157.4 C 123.469 155.15 123.179 154.459 123.24 156.233 M 276.46 159.267 C 276.427 159.854 276.296 160.664 276.17 161.067 C 275.952 161.76 275.965 161.761 276.395 161.09 C 276.646 160.699 276.777 159.889 276.686 159.29 L 276.52 158.2 L 276.46 159.267 M 124.028 160.433 C 124.044 160.965 124.219 161.76 124.419 162.2 C 124.671 162.758 124.707 162.515 124.538 161.4 C 124.255 159.543 123.987 159.036 124.028 160.433 M 275.646 162.867 C 275.621 163.234 275.496 163.864 275.37 164.267 C 275.152 164.962 275.163 164.963 275.597 164.287 C 275.848 163.896 275.973 163.266 275.873 162.887 C 275.711 162.268 275.688 162.266 275.646 162.867 M 124.84 163.738 C 124.775 164.293 126.06 168.474 126.24 168.293 C 126.332 168.202 126.063 167.063 125.643 165.764 C 125.223 164.464 124.862 163.552 124.84 163.738 M 128.026 173.6 C 128.033 174.187 129.55 177.249 129.583 176.744 C 129.592 176.603 129.244 175.703 128.809 174.744 C 128.374 173.785 128.021 173.27 128.026 173.6 M 130.403 178.89 C 130.401 179.05 130.759 179.77 131.199 180.49 C 131.638 181.211 131.996 181.62 131.996 181.4 C 131.995 181.18 131.637 180.46 131.2 179.8 C 130.763 179.14 130.404 178.731 130.403 178.89 M 268.35 181.7 C 267.874 182.635 267.221 183.85 266.9 184.4 C 266.339 185.359 266.343 185.367 266.99 184.6 C 267.773 183.67 269.708 180 269.415 180 C 269.306 180 268.827 180.765 268.35 181.7 M 132.524 183 C 132.862 183.66 133.438 184.56 133.804 185 C 134.17 185.44 134.065 185.08 133.57 184.2 C 132.48 182.258 131.664 181.322 132.524 183 M 263.883 189.044 C 263.049 190.23 262.448 191.2 262.549 191.2 C 262.829 191.2 265.716 187.181 265.548 187.025 C 265.467 186.95 264.717 187.859 263.883 189.044 M 135.211 187.446 C 135.217 187.641 135.712 188.347 136.311 189.016 C 137.517 190.362 137.411 190.019 136.072 188.246 C 135.592 187.611 135.205 187.251 135.211 187.446 M 139.364 193.07 C 141.479 195.914 147.626 202.254 150.7 204.762 C 154.104 207.538 153.103 206.378 149.1 202.907 C 147.065 201.143 144.106 198.192 142.525 196.35 C 137.867 190.921 137.43 190.467 139.364 193.07 M 261.359 192.5 C 259.607 194.521 259.087 195.2 259.29 195.2 C 259.407 195.2 260.167 194.39 260.979 193.4 C 262.481 191.566 262.779 190.863 261.359 192.5 M 256.189 198.427 C 254.655 199.983 251.87 202.536 250 204.103 C 244.719 208.527 244.137 209.299 249 205.43 C 251.106 203.754 259.551 195.611 259.189 195.604 C 259.073 195.602 257.723 196.872 256.189 198.427 M 153.35 206.72 C 153.51 206.978 154.469 207.76 155.482 208.457 C 157.879 210.106 157.44 209.395 154.963 207.616 C 153.916 206.865 153.191 206.461 153.35 206.72 M 241.072 210.589 C 238.192 212.419 237.133 213.256 238.787 212.393 C 240.354 211.576 244 209.194 244 208.988 C 244 208.721 244.068 208.683 241.072 210.589 M 162.086 212.6 C 162.895 213.15 163.699 213.6 163.872 213.6 C 164.044 213.6 163.523 213.15 162.714 212.6 C 161.905 212.05 161.101 211.6 160.928 211.6 C 160.756 211.6 161.277 212.05 162.086 212.6 M 235.2 214 C 233.99 214.639 233.141 215.171 233.313 215.181 C 233.738 215.207 237.6 213.236 237.6 212.993 C 237.6 212.726 237.655 212.703 235.2 214 M 164.4 213.758 C 164.4 213.87 165.075 214.271 165.9 214.648 C 166.725 215.026 167.535 215.405 167.7 215.491 C 167.865 215.577 168 215.555 168 215.442 C 168 215.33 167.325 214.929 166.5 214.552 C 165.675 214.174 164.865 213.795 164.7 213.709 C 164.535 213.623 164.4 213.645 164.4 213.758 M 169.2 216.2 C 169.75 216.514 170.38 216.772 170.6 216.772 C 170.82 216.772 170.55 216.514 170 216.2 C 169.45 215.886 168.82 215.628 168.6 215.628 C 168.38 215.628 168.65 215.886 169.2 216.2 M 178.4 219.594 C 178.73 219.811 179.435 219.991 179.967 219.994 C 181.251 220.002 180.925 219.775 179.2 219.458 C 178.215 219.277 177.978 219.318 178.4 219.594 M 220.8 219.6 C 219.976 219.864 219.941 219.926 220.6 219.954 C 221.04 219.973 221.67 219.813 222 219.6 C 222.701 219.147 222.214 219.147 220.8 219.6 M 181.6 220.394 C 181.93 220.611 182.635 220.791 183.167 220.794 C 184.451 220.802 184.125 220.575 182.4 220.258 C 181.415 220.077 181.178 220.118 181.6 220.394 M 217.4 220.4 C 216.311 220.677 216.293 220.707 217.2 220.725 C 217.75 220.735 218.56 220.589 219 220.4 C 219.986 219.976 219.066 219.976 217.4 220.4 M 185 221.197 C 185.764 221.528 188.714 221.755 188.367 221.456 C 188.275 221.377 187.3 221.209 186.2 221.082 C 184.913 220.933 184.485 220.974 185 221.197 M 212.705 221.483 C 213.202 221.579 213.922 221.575 214.305 221.475 C 214.687 221.375 214.28 221.296 213.4 221.301 C 212.52 221.305 212.207 221.387 212.705 221.483 M 192.5 222.287 C 193.105 222.378 194.095 222.378 194.7 222.287 C 195.305 222.195 194.81 222.12 193.6 222.12 C 192.39 222.12 191.895 222.195 192.5 222.287 M 204.9 222.291 C 205.725 222.378 207.075 222.378 207.9 222.291 C 208.725 222.205 208.05 222.134 206.4 222.134 C 204.75 222.134 204.075 222.205 204.9 222.291 M 134.8 226.685 C 135.35 226.782 136.43 227.351 137.2 227.95 C 139.272 229.561 141.2 230.878 141.2 230.682 C 141.2 230.116 135.531 226.408 134.736 226.454 C 133.823 226.508 133.824 226.513 134.8 226.685 M 132 227.4 C 131.45 227.714 131.18 227.972 131.4 227.972 C 131.62 227.972 132.25 227.714 132.8 227.4 C 133.35 227.086 133.62 226.828 133.4 226.828 C 133.18 226.828 132.55 227.086 132 227.4 M 261.189 229.13 C 259.534 230.378 257.734 231.72 257.189 232.112 C 256.514 232.598 256.46 232.702 257.019 232.441 C 258.164 231.906 265.06 226.793 264.587 226.83 C 264.374 226.846 262.845 227.881 261.189 229.13 M 265.2 226.934 C 265.2 227.037 265.781 227.324 266.491 227.572 C 267.201 227.819 267.606 227.857 267.391 227.656 C 266.935 227.229 265.2 226.658 265.2 226.934 M 127.5 229.429 C 125.949 230.27 126.125 230.561 127.7 229.759 C 129.208 228.993 129.475 228.794 128.967 228.816 C 128.765 228.825 128.105 229.101 127.5 229.429 M 271.6 229.779 C 271.6 229.889 272.14 230.259 272.8 230.6 C 273.46 230.941 274 231.131 274 231.021 C 274 230.911 273.46 230.541 272.8 230.2 C 272.14 229.859 271.6 229.669 271.6 229.779 M 141.775 231.159 C 141.897 231.357 142.639 231.898 143.423 232.36 C 144.207 232.823 144.748 233.039 144.625 232.841 C 144.503 232.643 143.761 232.102 142.977 231.64 C 142.193 231.177 141.652 230.961 141.775 231.159 M 122.8 232.036 C 122.136 232.579 122.069 232.715 122.6 232.44 C 123.905 231.766 124.628 231.212 124.2 231.215 C 123.98 231.217 123.35 231.586 122.8 232.036 M 275.011 231.727 C 276.601 232.788 279.6 234.428 279.6 234.236 C 279.6 234.003 274.881 231.2 274.49 231.2 C 274.342 231.2 274.577 231.437 275.011 231.727 M 118.6 234.635 L 117.4 235.666 L 118.8 234.763 C 120.596 233.604 120.601 233.6 120.167 233.602 C 119.965 233.603 119.26 234.068 118.6 234.635 M 251.8 235.262 C 250.26 236.168 247.695 237.535 246.1 238.299 C 243.027 239.772 242.183 240.431 244.7 239.392 C 246.408 238.687 254.004 234.513 254.58 233.963 C 255.28 233.294 254.618 233.603 251.8 235.262 M 148.8 235.622 C 149.833 236.326 152.4 237.625 152.4 237.442 C 152.4 237.233 148.805 235.197 148.45 235.206 C 148.312 235.209 148.47 235.396 148.8 235.622 M 281.318 235.467 C 281.459 235.696 282.886 236.816 284.488 237.956 C 286.089 239.096 286.803 239.504 286.074 238.863 C 284.298 237.303 280.994 234.944 281.318 235.467 M 114.916 237.12 C 113.77 237.934 112.825 238.741 112.816 238.913 C 112.807 239.085 113.79 238.478 115 237.565 C 116.21 236.651 117.2 235.836 117.2 235.752 C 117.2 235.508 117.105 235.565 114.916 237.12 M 291.323 243.6 C 293.279 245.47 296.411 248.62 298.282 250.6 C 300.26 252.692 300.842 253.195 299.672 251.8 C 297.658 249.4 291.853 243.64 289.183 241.393 C 288.404 240.737 289.366 241.73 291.323 243.6 M 108.975 242.1 L 107.8 243.4 L 109.1 242.225 C 110.312 241.13 110.584 240.8 110.275 240.8 C 110.206 240.8 109.621 241.385 108.975 242.1 M 103.991 246.7 L 100.6 250.2 L 104.1 246.809 C 107.351 243.659 107.782 243.2 107.491 243.2 C 107.431 243.2 105.856 244.775 103.991 246.7 M 228.2 245.2 C 227.696 245.417 227.622 245.544 228 245.544 C 228.33 245.544 228.96 245.389 229.4 245.2 C 229.904 244.983 229.978 244.856 229.6 244.856 C 229.27 244.856 228.64 245.011 228.2 245.2 M 173.633 245.744 C 173.725 245.823 174.34 246.008 175 246.156 C 175.876 246.352 176.038 246.315 175.6 246.018 C 175.06 245.653 173.232 245.398 173.633 245.744 M 225 246 C 224.496 246.217 224.422 246.344 224.8 246.344 C 225.13 246.344 225.76 246.189 226.2 246 C 226.704 245.783 226.778 245.656 226.4 245.656 C 226.07 245.656 225.44 245.811 225 246 M 221.6 246.8 C 220.796 247.057 220.757 247.123 221.4 247.132 C 221.84 247.138 222.56 246.989 223 246.8 C 224.019 246.362 222.968 246.362 221.6 246.8 M 180.033 247.349 C 180.125 247.431 181.1 247.601 182.2 247.728 C 183.549 247.884 183.874 247.849 183.2 247.62 C 182.201 247.28 179.718 247.068 180.033 247.349 M 218.5 247.476 C 218.885 247.576 219.515 247.576 219.9 247.476 C 220.285 247.375 219.97 247.293 219.2 247.293 C 218.43 247.293 218.115 247.375 218.5 247.476 M 184.433 248.148 C 184.525 248.229 185.95 248.396 187.6 248.519 C 189.824 248.684 190.186 248.652 189 248.394 C 187.399 248.046 184.119 247.869 184.433 248.148 M 213.3 248.276 C 213.685 248.376 214.315 248.376 214.7 248.276 C 215.085 248.175 214.77 248.093 214 248.093 C 213.23 248.093 212.915 248.175 213.3 248.276 M 195.9 249.099 C 198.375 249.169 202.425 249.169 204.9 249.099 C 207.375 249.028 205.35 248.971 200.4 248.971 C 195.45 248.971 193.425 249.028 195.9 249.099 M 98.818 252.134 L 97.437 253.8 L 99.118 252.219 C 100.043 251.349 100.8 250.584 100.8 250.519 C 100.8 250.059 99.994 250.716 98.818 252.134 M 95.755 255.881 C 94.907 256.916 94.422 257.634 94.677 257.476 C 95.221 257.14 97.755 254 97.482 254 C 97.38 254 96.603 254.847 95.755 255.881 M 304.809 258.641 C 307.727 262.468 310.264 265.512 308.941 263.6 C 307.3 261.226 302.325 254.801 301.949 254.568 C 301.694 254.411 302.981 256.243 304.809 258.641 M 92.744 259.9 C 91.593 261.289 91.106 262 91.304 262 C 91.414 262 91.986 261.37 92.573 260.6 C 93.663 259.171 93.795 258.632 92.744 259.9 M 87.108 268.1 C 86.233 269.449 85.448 271.056 85.887 270.6 C 86.448 270.017 88.098 267.2 87.879 267.2 C 87.776 267.2 87.429 267.605 87.108 268.1 M 312.6 270 C 312.941 270.66 313.311 271.2 313.421 271.2 C 313.531 271.2 313.341 270.66 313 270 C 312.659 269.34 312.289 268.8 312.179 268.8 C 312.069 268.8 312.259 269.34 312.6 270 M 81.837 277.481 C 80.843 279.396 80.09 281.024 80.165 281.099 C 80.24 281.173 81.142 279.607 82.169 277.617 C 83.197 275.628 83.949 274 83.841 274 C 83.732 274 82.831 275.567 81.837 277.481 M 315.8 275.6 C 316.141 276.26 316.511 276.8 316.621 276.8 C 316.731 276.8 316.541 276.26 316.2 275.6 C 315.859 274.94 315.489 274.4 315.379 274.4 C 315.269 274.4 315.459 274.94 315.8 275.6 M 318.679 281.1 C 318.967 281.894 320 283.497 320 283.15 C 320 282.802 318.763 280.4 318.583 280.4 C 318.496 280.4 318.539 280.715 318.679 281.1 M 79.005 283 C 78.672 283.77 78.128 285.03 77.795 285.8 C 77.462 286.57 77.279 287.2 77.389 287.2 C 77.499 287.2 77.862 286.57 78.195 285.8 C 78.528 285.03 79.072 283.77 79.405 283 C 79.738 282.23 79.921 281.6 79.811 281.6 C 79.701 281.6 79.338 282.23 79.005 283 M 320.034 283.8 C 320.034 284.02 320.378 284.83 320.8 285.6 C 321.222 286.37 321.566 286.82 321.566 286.6 C 321.566 286.38 321.222 285.57 320.8 284.8 C 320.378 284.03 320.034 283.58 320.034 283.8 M 76.465 288.617 C 75.795 290.088 75.923 290.402 76.647 289.065 C 76.986 288.44 77.188 287.854 77.096 287.763 C 77.005 287.671 76.721 288.056 76.465 288.617 M 326.644 300.2 C 326.973 301.671 327.202 301.99 327.194 300.967 C 327.191 300.545 327.005 299.93 326.782 299.6 C 326.485 299.162 326.448 299.324 326.644 300.2 M 70.58 305.1 C 70.451 305.705 70.177 306.613 69.972 307.119 C 69.768 307.624 69.608 308.344 69.618 308.719 C 69.627 309.093 69.873 308.734 70.164 307.92 C 70.794 306.153 71.253 304 70.998 304 C 70.897 304 70.709 304.495 70.58 305.1 M 69 310.8 C 68.848 311.491 68.807 312.141 68.909 312.242 C 69.011 312.344 69.209 311.853 69.35 311.15 C 69.683 309.483 69.36 309.16 69 310.8 M 329.858 311.2 C 330.175 312.925 330.402 313.251 330.394 311.967 C 330.391 311.435 330.211 310.73 329.994 310.4 C 329.718 309.978 329.677 310.215 329.858 311.2 M 67.416 317.859 C 67.287 318.707 67.006 320.269 66.791 321.331 C 66.576 322.392 66.422 323.832 66.45 324.531 C 66.488 325.499 66.578 325.325 66.83 323.8 C 67.678 318.663 67.951 316.618 67.807 316.474 C 67.722 316.388 67.546 317.012 67.416 317.859 M 331.482 318.6 C 331.609 319.7 331.777 320.675 331.856 320.767 C 332.155 321.114 331.928 318.164 331.597 317.4 C 331.374 316.885 331.333 317.313 331.482 318.6 M 332.509 324.4 C 332.509 325.39 332.587 325.795 332.682 325.3 C 332.778 324.805 332.778 323.995 332.682 323.5 C 332.587 323.005 332.509 323.41 332.509 324.4 M 66.109 328 C 66.109 328.99 66.187 329.395 66.282 328.9 C 66.378 328.405 66.378 327.595 66.282 327.1 C 66.187 326.605 66.109 327.01 66.109 328 M 332.893 328 C 332.893 328.77 332.975 329.085 333.076 328.7 C 333.176 328.315 333.176 327.685 333.076 327.3 C 332.975 326.915 332.893 327.23 332.893 328 M 333.272 331.7 L 333.2 334 L 199.621 334 L 66.042 334 L 65.883 331.9 L 65.724 329.8 L 65.762 332 L 65.8 334.2 L 199.512 334.301 C 312.83 334.386 333.257 334.317 333.436 333.85 C 333.553 333.546 333.58 332.421 333.496 331.349 L 333.344 329.4 L 333.272 331.7" stroke-linecap="round"/>
</g>
		<g transform="matrix(1 0 0 1 -0.3741 -2.3875)" id="path3">
<path style="stroke: none; stroke-width: 1; stroke-dasharray: none; stroke-linecap: butt; stroke-dashoffset: 0; stroke-linejoin: miter; stroke-miterlimit: 4; is-custom-font: none; font-file-url: none; fill: rgb(206,206,206); fill-rule: evenodd; opacity: 1;" transform=" translate(-199.6259, -197.6125)" d="M 193.105 65.883 C 193.602 65.979 194.322 65.975 194.705 65.875 C 195.087 65.775 194.68 65.696 193.8 65.701 C 192.92 65.705 192.607 65.787 193.105 65.883 M 206.1 65.876 C 206.485 65.976 207.115 65.976 207.5 65.876 C 207.885 65.775 207.57 65.693 206.8 65.693 C 206.03 65.693 205.715 65.775 206.1 65.876 M 208.9 66.276 C 209.285 66.376 209.915 66.376 210.3 66.276 C 210.685 66.175 210.37 66.093 209.6 66.093 C 208.83 66.093 208.515 66.175 208.9 66.276 M 247.6 81.725 C 247.6 81.824 248.261 82.409 249.068 83.025 C 249.876 83.641 250.411 83.941 250.256 83.691 C 249.94 83.179 247.6 81.447 247.6 81.725 M 149.375 84.5 L 148.2 85.8 L 149.5 84.625 C 150.215 83.979 150.8 83.394 150.8 83.325 C 150.8 83.016 150.47 83.288 149.375 84.5 M 145.178 88.3 L 143.8 89.8 L 145.3 88.422 C 146.125 87.663 146.8 86.988 146.8 86.922 C 146.8 86.616 146.462 86.904 145.178 88.3 M 256.6 90 C 257.459 90.88 258.252 91.6 258.362 91.6 C 258.472 91.6 257.859 90.88 257 90 C 256.141 89.12 255.348 88.4 255.238 88.4 C 255.128 88.4 255.741 89.12 256.6 90 M 141.178 92.7 L 139.8 94.2 L 141.3 92.822 C 142.125 92.063 142.8 91.388 142.8 91.322 C 142.8 91.016 142.462 91.304 141.178 92.7 M 278.109 138.4 C 278.109 139.39 278.187 139.795 278.282 139.3 C 278.378 138.805 278.378 137.995 278.282 137.5 C 278.187 137.005 278.109 137.41 278.109 138.4 M 278.101 149.8 C 278.105 150.68 278.187 150.993 278.283 150.495 C 278.379 149.998 278.375 149.278 278.275 148.895 C 278.175 148.513 278.096 148.92 278.101 149.8 M 122.493 152.4 C 122.493 153.17 122.575 153.485 122.676 153.1 C 122.776 152.715 122.776 152.085 122.676 151.7 C 122.575 151.315 122.493 151.63 122.493 152.4 M 141.4 196 C 142.259 196.88 143.052 197.6 143.162 197.6 C 143.272 197.6 142.659 196.88 141.8 196 C 140.941 195.12 140.148 194.4 140.038 194.4 C 139.928 194.4 140.541 195.12 141.4 196 M 254.8 200.2 C 253.161 201.85 251.91 203.2 252.02 203.2 C 252.13 203.2 253.561 201.85 255.2 200.2 C 256.839 198.55 258.09 197.2 257.98 197.2 C 257.87 197.2 256.439 198.55 254.8 200.2 M 148 202.525 C 148 202.594 148.585 203.179 149.3 203.825 L 150.6 205 L 149.425 203.7 C 148.33 202.488 148 202.216 148 202.525 M 151.164 205.335 C 151.749 206.063 154 207.777 154 207.494 C 154 207.406 153.235 206.726 152.3 205.983 C 151.365 205.24 150.854 204.948 151.164 205.335 M 159.6 211.379 C 159.6 211.489 160.14 211.859 160.8 212.2 C 161.46 212.541 162 212.731 162 212.621 C 162 212.511 161.46 212.141 160.8 211.8 C 160.14 211.459 159.6 211.269 159.6 211.379 M 210.2 222 C 209.122 222.274 209.102 222.306 210 222.313 C 210.55 222.317 211.45 222.176 212 222 C 213.344 221.569 211.892 221.569 210.2 222 M 197.682 222.696 C 199.158 222.773 201.678 222.773 203.282 222.697 C 204.887 222.621 203.68 222.558 200.6 222.558 C 197.52 222.557 196.207 222.619 197.682 222.696 M 288 240.125 C 288 240.194 288.585 240.779 289.3 241.425 L 290.6 242.6 L 289.425 241.3 C 288.33 240.088 288 239.816 288 240.125 M 295 246.8 C 297.192 249 299.075 250.8 299.185 250.8 C 299.295 250.8 297.592 249 295.4 246.8 C 293.208 244.6 291.325 242.8 291.215 242.8 C 291.105 242.8 292.808 244.6 295 246.8 M 104.585 245.7 L 102.6 247.8 L 104.7 245.815 C 105.855 244.723 106.8 243.778 106.8 243.715 C 106.8 243.417 106.429 243.749 104.585 245.7 M 215.8 247.6 C 214.781 248.038 215.832 248.038 217.2 247.6 C 218.004 247.343 218.043 247.277 217.4 247.268 C 216.96 247.262 216.24 247.411 215.8 247.6 M 207.9 248.682 C 208.395 248.778 209.205 248.778 209.7 248.682 C 210.195 248.587 209.79 248.509 208.8 248.509 C 207.81 248.509 207.405 248.587 207.9 248.682 M 331.256 316 C 331.256 316.33 331.411 316.96 331.6 317.4 C 331.817 317.904 331.944 317.978 331.944 317.6 C 331.944 317.27 331.789 316.64 331.6 316.2 C 331.383 315.696 331.256 315.622 331.256 316 M 65.701 328.6 C 65.705 329.48 65.787 329.793 65.883 329.295 C 65.979 328.798 65.975 328.078 65.875 327.695 C 65.775 327.313 65.696 327.72 65.701 328.6 M 333.293 328.4 C 333.293 329.17 333.375 329.485 333.476 329.1 C 333.576 328.715 333.576 328.085 333.476 327.7 C 333.375 327.315 333.293 327.63 333.293 328.4" stroke-linecap="round"/>
</g>
		<g transform="matrix(1 0 0 1 -0.3965 -0.0185)" id="path4">
<path style="stroke: none; stroke-width: 1; stroke-dasharray: none; stroke-linecap: butt; stroke-dashoffset: 0; stroke-linejoin: miter; stroke-miterlimit: 4; is-custom-font: none; font-file-url: none; fill: rgb(226,226,226); fill-rule: evenodd; opacity: 1;" transform=" translate(-199.6035, -199.9815)" d="M 197.1 65.498 C 198.915 65.572 201.885 65.572 203.7 65.498 C 205.515 65.423 204.03 65.363 200.4 65.363 C 196.77 65.363 195.285 65.423 197.1 65.498 M 188.8 66 L 187 66.28 L 188.6 66.293 C 189.48 66.3 190.74 66.168 191.4 66 C 193 65.593 191.419 65.593 188.8 66 M 209.6 66.02 C 212.014 66.45 213.906 66.413 211.8 65.977 C 210.92 65.795 209.66 65.658 209 65.673 C 208.1 65.693 208.25 65.78 209.6 66.02 M 184.2 66.8 C 183.122 67.074 183.102 67.106 184 67.113 C 184.55 67.117 185.45 66.976 186 66.8 C 187.344 66.369 185.892 66.369 184.2 66.8 M 214.4 66.8 C 214.95 66.976 215.85 67.117 216.4 67.113 C 217.298 67.106 217.278 67.074 216.2 66.8 C 214.508 66.369 213.056 66.369 214.4 66.8 M 180.8 67.6 C 179.996 67.857 179.957 67.923 180.6 67.932 C 181.04 67.938 181.76 67.789 182.2 67.6 C 183.219 67.162 182.168 67.162 180.8 67.6 M 218.2 67.6 C 218.64 67.789 219.36 67.938 219.8 67.932 C 220.443 67.923 220.404 67.857 219.6 67.6 C 218.232 67.162 217.181 67.162 218.2 67.6 M 174.838 69.418 C 170.889 70.75 163.779 73.912 164.073 74.206 C 164.148 74.281 165.664 73.64 167.441 72.782 C 169.219 71.923 172.637 70.566 175.037 69.766 C 177.436 68.966 179.475 68.242 179.567 68.156 C 179.975 67.774 178.713 68.111 174.838 69.418 M 221.2 68.382 C 221.53 68.605 222.145 68.791 222.567 68.794 C 223.59 68.802 223.271 68.573 221.8 68.244 C 220.924 68.048 220.762 68.085 221.2 68.382 M 223.6 68.946 C 223.6 69.133 227.389 70.408 227.875 70.384 C 228.346 70.362 225.992 69.378 224.7 69.057 C 224.095 68.907 223.6 68.857 223.6 68.946 M 230.44 71.373 C 230.562 71.496 232.514 72.501 234.776 73.607 C 240.374 76.345 246.332 80.224 250.399 83.777 L 251.798 85 L 250.599 83.655 C 249.94 82.915 248.77 81.878 248 81.352 C 247.23 80.825 245.178 79.409 243.44 78.204 C 239.775 75.662 229.143 70.076 230.44 71.373 M 159.886 76.34 C 158.834 76.96 157.754 77.703 157.486 77.991 C 156.988 78.527 159.501 77.139 161.234 75.921 C 162.734 74.866 162.004 75.094 159.886 76.34 M 154.6 79.856 C 149.88 83.177 142.787 89.893 139.594 94.066 C 138.864 95.02 139.499 94.45 141.004 92.8 C 145.273 88.12 149.485 84.192 153.3 81.332 C 155.225 79.889 156.8 78.639 156.8 78.554 C 156.8 78.316 156.73 78.357 154.6 79.856 M 255.211 88.204 C 257.075 90.186 258.682 91.755 258.782 91.689 C 258.882 91.623 257.357 90.001 255.393 88.085 L 251.822 84.6 L 255.211 88.204 M 259.2 92.17 C 259.2 92.32 260.153 93.648 261.318 95.121 C 262.483 96.595 263.953 98.573 264.584 99.518 C 265.216 100.462 265.907 101.343 266.12 101.474 C 266.333 101.606 265.784 100.653 264.9 99.357 C 263.003 96.575 259.2 91.78 259.2 92.17 M 136.702 97.9 C 133.643 102.156 130.868 106.8 131.384 106.8 C 131.494 106.8 131.93 106.125 132.354 105.3 C 132.778 104.475 134.3 102.045 135.738 99.9 C 138.478 95.81 139.036 94.654 136.702 97.9 M 267.29 103.6 C 267.853 104.59 268.71 106.165 269.197 107.1 C 270.094 108.826 270.594 109.375 270.108 108.1 C 269.671 106.956 267.178 102.632 266.705 102.2 C 266.465 101.98 266.728 102.61 267.29 103.6 M 129.337 110.3 C 127.452 114.422 126.335 117.268 126.528 117.461 C 126.614 117.547 127.011 116.759 127.41 115.709 C 127.809 114.659 128.817 112.315 129.65 110.5 C 130.482 108.685 131.071 107.2 130.959 107.2 C 130.846 107.2 130.117 108.595 129.337 110.3 M 272.91 115 C 273.487 117.022 274.935 120.798 275.079 120.655 C 275.27 120.463 273.315 114.771 272.943 114.435 C 272.799 114.306 272.785 114.56 272.91 115 M 126.032 118.676 C 126.014 119.158 125.82 119.664 125.6 119.8 C 125.38 119.936 125.214 120.442 125.232 120.924 C 125.252 121.477 125.336 121.579 125.461 121.2 C 125.57 120.87 125.846 120.213 126.076 119.739 C 126.305 119.266 126.396 118.636 126.278 118.339 C 126.154 118.029 126.05 118.172 126.032 118.676 M 275.206 121.833 C 275.209 122.255 275.395 122.87 275.618 123.2 C 275.915 123.638 275.952 123.476 275.756 122.6 C 275.427 121.129 275.198 120.81 275.206 121.833 M 124.25 124.45 C 123.917 126.117 124.24 126.44 124.6 124.8 C 124.752 124.109 124.793 123.459 124.691 123.358 C 124.589 123.256 124.391 123.747 124.25 124.45 M 276.068 124.6 C 276.062 125.04 276.211 125.76 276.4 126.2 C 276.838 127.219 276.838 126.168 276.4 124.8 C 276.143 123.996 276.077 123.957 276.068 124.6 M 123.422 127.822 C 123.272 128.625 123.228 129.362 123.326 129.46 C 123.424 129.557 123.627 128.981 123.778 128.178 C 123.928 127.375 123.972 126.638 123.874 126.54 C 123.776 126.443 123.573 127.019 123.422 127.822 M 276.828 128.233 C 276.844 128.875 277.016 129.76 277.21 130.2 C 277.447 130.734 277.486 130.402 277.327 129.2 C 277.046 127.08 276.788 126.58 276.828 128.233 M 122.633 132.433 C 122.483 133.566 122.441 134.574 122.539 134.672 C 122.637 134.771 122.845 133.928 123 132.8 C 123.155 131.672 123.198 130.664 123.094 130.561 C 122.991 130.458 122.784 131.3 122.633 132.433 M 277.673 132.6 C 277.658 133.26 277.795 134.52 277.977 135.4 C 278.413 137.506 278.45 135.614 278.02 133.2 C 277.78 131.85 277.693 131.7 277.673 132.6 M 122.17 144.2 C 122.171 149.04 122.229 150.965 122.299 148.478 C 122.369 145.991 122.369 142.031 122.298 139.678 C 122.228 137.325 122.17 139.36 122.17 144.2 M 278.558 144.2 C 278.558 147.28 278.621 148.487 278.697 146.882 C 278.773 145.278 278.773 142.758 278.696 141.282 C 278.619 139.807 278.557 141.12 278.558 144.2 M 277.787 153.787 C 277.631 155.244 277.589 156.523 277.695 156.628 C 277.801 156.734 278.01 155.623 278.16 154.16 C 278.31 152.697 278.351 151.418 278.252 151.318 C 278.152 151.219 277.943 152.329 277.787 153.787 M 122.47 154.2 C 122.457 154.64 122.595 155.72 122.777 156.6 C 123.055 157.945 123.108 158.009 123.107 157 C 123.105 155.599 122.508 152.97 122.47 154.2 M 277.056 158.484 C 276.921 158.988 276.828 159.85 276.849 160.4 C 276.872 160.989 277.031 160.671 277.236 159.625 C 277.603 157.752 277.473 156.927 277.056 158.484 M 123.462 160.2 C 123.596 161.08 123.772 161.875 123.853 161.967 C 124.156 162.31 123.929 160.168 123.581 159.4 C 123.329 158.842 123.293 159.085 123.462 160.2 M 124.244 163.8 C 124.573 165.271 124.802 165.59 124.794 164.567 C 124.791 164.145 124.605 163.53 124.382 163.2 C 124.085 162.762 124.048 162.924 124.244 163.8 M 275.449 165.415 C 275.312 165.773 275.215 166.366 275.234 166.733 C 275.253 167.1 275.427 166.869 275.621 166.22 C 275.998 164.958 275.865 164.333 275.449 165.415 M 125.044 166.6 C 125.373 168.071 125.602 168.39 125.594 167.367 C 125.591 166.945 125.405 166.33 125.182 166 C 124.885 165.562 124.848 165.724 125.044 166.6 M 126.4 170.929 C 126.4 171.432 128.5 176.433 128.649 176.285 C 128.731 176.202 128.331 174.979 127.759 173.567 C 126.747 171.066 126.4 170.393 126.4 170.929 M 271.8 175.861 C 271.464 176.665 271.282 177.415 271.395 177.528 C 271.508 177.641 271.6 177.635 271.6 177.516 C 271.6 177.396 271.872 176.646 272.205 175.849 C 272.538 175.052 272.721 174.4 272.611 174.4 C 272.501 174.4 272.136 175.058 271.8 175.861 M 128.91 177.1 C 128.997 177.265 129.468 178.275 129.956 179.344 C 130.445 180.413 130.923 181.21 131.019 181.115 C 131.215 180.919 129.231 176.8 128.941 176.8 C 128.837 176.8 128.824 176.935 128.91 177.1 M 269.455 180.8 C 268.672 182.34 268.097 183.6 268.177 183.6 C 268.403 183.6 269.969 180.849 270.594 179.353 C 271.533 177.106 270.965 177.827 269.455 180.8 M 131.224 181.722 C 131.1 183.42 143.303 199.571 145.666 200.835 C 146.083 201.059 145.233 200.017 143.776 198.521 C 139.942 194.583 137.051 190.659 131.724 182.16 C 131.461 181.742 131.236 181.545 131.224 181.722 M 266.659 185.583 C 265.201 187.786 265.324 188.101 266.829 186.023 C 267.506 185.089 267.982 184.249 267.888 184.155 C 267.794 184.061 267.241 184.704 266.659 185.583 M 262.685 191.5 C 259.644 195.583 253.612 202.076 251.257 203.8 C 250.356 204.46 249.615 205.148 249.609 205.329 C 249.564 206.909 259.832 196.173 264.174 190.1 C 266.641 186.649 265.497 187.725 262.685 191.5 M 147.42 202.755 C 149.285 204.498 155.75 209.416 157.2 210.195 C 158.236 210.751 157.136 209.834 154.8 208.194 C 153.59 207.344 151.492 205.693 150.139 204.524 C 148.785 203.356 147.534 202.4 147.359 202.4 C 147.183 202.4 147.211 202.56 147.42 202.755 M 246.4 207.647 C 243.463 209.892 237.318 213.639 234.606 214.839 C 232.696 215.683 232.102 216.245 233.803 215.599 C 235.714 214.872 243.793 210.317 244.4 209.624 C 244.51 209.498 245.635 208.626 246.9 207.685 C 248.165 206.744 249.2 205.89 249.2 205.787 C 249.2 205.507 249.198 205.509 246.4 207.647 M 160.4 212.179 C 160.4 212.289 160.94 212.659 161.6 213 C 162.26 213.341 162.8 213.531 162.8 213.421 C 162.8 213.311 162.26 212.941 161.6 212.6 C 160.94 212.259 160.4 212.069 160.4 212.179 M 165.411 214.934 C 166.296 215.532 167.6 216.058 167.6 215.817 C 167.6 215.637 165.198 214.4 164.85 214.4 C 164.724 214.4 164.977 214.64 165.411 214.934 M 168 216.115 C 168 216.391 173.259 218.474 173.457 218.276 C 173.544 218.189 172.668 217.748 171.508 217.297 C 170.349 216.847 169.085 216.351 168.7 216.196 C 168.315 216.041 168 216.005 168 216.115 M 175 218.951 C 176.399 219.556 178.4 220.087 178.4 219.854 C 178.4 219.667 174.611 218.392 174.125 218.416 C 173.946 218.424 174.34 218.665 175 218.951 M 221.453 219.83 C 220.382 220.122 219.405 220.462 219.282 220.585 C 218.961 220.906 221.552 220.364 223.2 219.765 C 225.009 219.108 223.959 219.147 221.453 219.83 M 178.833 220.144 C 178.925 220.223 179.54 220.408 180.2 220.556 C 181.076 220.752 181.238 220.715 180.8 220.418 C 180.26 220.053 178.432 219.798 178.833 220.144 M 181.633 220.947 C 181.725 221.028 182.52 221.204 183.4 221.338 C 184.515 221.507 184.758 221.471 184.2 221.219 C 183.432 220.871 181.29 220.644 181.633 220.947 M 216.706 221.028 C 216.581 221.153 215.606 221.402 214.539 221.581 C 213.218 221.802 212.982 221.915 213.8 221.935 C 214.46 221.951 215.9 221.715 217 221.409 C 218.351 221.034 218.665 220.845 217.967 220.827 C 217.398 220.812 216.831 220.902 216.706 221.028 M 185.233 221.746 C 185.325 221.826 186.39 221.994 187.6 222.119 C 189.02 222.266 189.446 222.229 188.8 222.013 C 187.809 221.683 184.913 221.465 185.233 221.746 M 193 222.85 C 196.629 223.175 204.683 223.176 208 222.853 C 209.43 222.714 206.01 222.6 200.4 222.6 C 194.79 222.6 191.46 222.713 193 222.85 M 133 226.378 C 131.063 227.295 131.324 227.442 133.369 226.587 C 135.021 225.897 135.251 225.974 138.658 228.359 C 141.154 230.106 140.459 229.36 137.611 227.234 C 135.102 225.362 135.135 225.368 133 226.378 M 265.6 226.6 C 266.15 226.914 266.78 227.172 267 227.172 C 267.22 227.172 266.95 226.914 266.4 226.6 C 265.85 226.286 265.22 226.028 265 226.028 C 264.78 226.028 265.05 226.286 265.6 226.6 M 262.6 227.425 C 259.576 229.934 252.622 234.324 247.121 237.195 C 246.088 237.735 245.31 238.243 245.392 238.326 C 245.547 238.48 249.033 236.638 253.615 233.98 C 255.881 232.666 263.079 227.735 264.18 226.743 C 265.107 225.907 263.693 226.517 262.6 227.425 M 127.419 228.818 C 125.67 229.689 124.05 230.594 123.819 230.83 C 123.589 231.066 125.093 230.438 127.163 229.434 C 129.232 228.43 131.017 227.516 131.129 227.404 C 131.673 226.861 130.306 227.382 127.419 228.818 M 267.608 227.329 C 267.714 227.427 270.14 228.696 273 230.148 C 275.86 231.6 277.84 232.506 277.4 232.161 C 276.111 231.15 266.756 226.534 267.608 227.329 M 140.803 229.896 C 140.805 230.172 141.78 230.843 144.3 232.304 C 146.01 233.295 145.193 232.508 143 231.053 C 141.79 230.249 140.801 229.729 140.803 229.896 M 121.2 232.4 C 120.21 233.058 119.539 233.597 119.709 233.598 C 120.057 233.6 123.2 231.574 123.2 231.347 C 123.2 231.092 123.042 231.175 121.2 232.4 M 146.2 233.396 C 147.094 234.139 149.628 235.509 149 234.91 C 148.78 234.7 147.88 234.124 147 233.63 C 146.12 233.135 145.76 233.03 146.2 233.396 M 115.6 235.994 C 114.39 236.848 112.59 238.288 111.6 239.194 C 110.315 240.371 110.667 240.178 112.834 238.521 C 114.503 237.244 116.393 235.805 117.034 235.322 C 118.989 233.85 117.941 234.341 115.6 235.994 M 280.8 234.496 C 280.91 234.609 282.8 236.053 285 237.706 C 291.012 242.223 300.343 251.441 303.484 255.967 C 303.548 256.058 303.687 256.046 303.794 255.94 C 304.407 255.326 291.015 241.812 285.939 237.922 C 283.088 235.738 280.002 233.68 280.8 234.496 M 149.8 235.539 C 150.339 236.077 158.417 240.117 158.595 239.938 C 158.673 239.861 156.636 238.749 154.068 237.469 C 151.501 236.188 149.58 235.32 149.8 235.539 M 242 239.616 C 240.79 240.248 239.93 240.774 240.088 240.783 C 240.51 240.808 244.8 238.81 244.8 238.588 C 244.8 238.243 244.217 238.457 242 239.616 M 159.4 240.304 C 159.925 240.778 163.979 242.407 164.553 242.375 C 165.025 242.348 164.719 242.205 161.2 240.813 C 159.99 240.334 159.18 240.105 159.4 240.304 M 106.127 243.778 C 97.905 251.417 88.479 263.855 82.922 274.4 C 82.144 275.875 81.904 276.567 82.367 276 C 82.815 275.45 83.186 274.879 83.191 274.732 C 83.208 274.215 87.226 267.498 89.69 263.865 C 94.887 256.205 103.693 246.006 108.35 242.255 C 109.093 241.657 109.618 241.084 109.517 240.983 C 109.416 240.882 107.891 242.14 106.127 243.778 M 235.2 242.4 C 234.21 242.815 233.67 243.152 234 243.148 C 234.672 243.14 238.028 241.663 237.4 241.652 C 237.18 241.648 236.19 241.985 235.2 242.4 M 231.6 243.6 C 230.776 243.864 230.741 243.926 231.4 243.954 C 231.84 243.973 232.47 243.813 232.8 243.6 C 233.501 243.147 233.014 243.147 231.6 243.6 M 170.4 244.382 C 170.73 244.605 171.345 244.791 171.767 244.794 C 172.79 244.802 172.471 244.573 171 244.244 C 170.124 244.048 169.962 244.085 170.4 244.382 M 173.2 245.194 C 173.53 245.411 174.235 245.591 174.767 245.594 C 176.051 245.602 175.725 245.375 174 245.058 C 173.015 244.877 172.778 244.918 173.2 245.194 M 226 245.2 C 225.196 245.457 225.157 245.523 225.8 245.532 C 226.24 245.538 226.96 245.389 227.4 245.2 C 228.419 244.762 227.368 244.762 226 245.2 M 176.4 245.994 C 176.73 246.211 177.435 246.391 177.967 246.394 C 179.251 246.402 178.925 246.175 177.2 245.858 C 176.215 245.677 175.978 245.718 176.4 245.994 M 222.6 246 C 221.511 246.277 221.493 246.307 222.4 246.325 C 222.95 246.335 223.76 246.189 224.2 246 C 225.186 245.576 224.266 245.576 222.6 246 M 180 246.8 C 180.55 246.976 181.45 247.117 182 247.113 C 182.898 247.106 182.878 247.074 181.8 246.8 C 180.108 246.369 178.656 246.369 180 246.8 M 218.6 246.8 L 217 247.086 L 218.4 247.115 C 219.17 247.131 220.16 246.989 220.6 246.8 C 221.543 246.395 220.862 246.395 218.6 246.8 M 184.6 247.589 C 185.816 247.909 189.473 248.122 189.167 247.855 C 189.075 247.775 187.74 247.611 186.2 247.491 C 184.502 247.359 183.872 247.398 184.6 247.589 M 213.6 247.6 L 211.8 247.88 L 213.4 247.912 C 214.28 247.929 215.36 247.789 215.8 247.6 C 216.727 247.202 216.161 247.202 213.6 247.6 M 191.2 248.457 C 192.19 248.613 196.24 248.73 200.2 248.716 C 209.443 248.684 208.126 248.477 197.6 248.307 C 193.09 248.234 190.21 248.302 191.2 248.457 M 208.505 248.287 C 209.114 248.379 210.014 248.377 210.505 248.282 C 210.997 248.187 210.5 248.111 209.4 248.114 C 208.3 248.117 207.897 248.195 208.505 248.287 M 305.36 258.3 C 306.151 259.345 308.084 262.135 309.656 264.5 C 311.229 266.865 312.59 268.8 312.681 268.8 C 312.876 268.8 312.792 268.657 310.443 265 C 308.255 261.595 304.452 256.4 304.146 256.4 C 304.024 256.4 304.57 257.255 305.36 258.3 M 313.359 270.3 C 314.089 271.684 315.17 273.099 315.187 272.691 C 315.202 272.341 313.177 269.2 312.937 269.2 C 312.85 269.2 313.04 269.695 313.359 270.3 M 315.2 273.35 C 315.2 273.726 317.31 277.223 317.452 277.082 C 317.627 276.907 315.635 273.2 315.366 273.2 C 315.275 273.2 315.2 273.267 315.2 273.35 M 79.986 279.901 C 79.145 281.587 79.14 281.6 79.347 281.6 C 79.605 281.6 80.842 279.108 80.669 278.936 C 80.595 278.862 80.288 279.296 79.986 279.901 M 318.449 279.4 C 319.145 281.154 320.494 283.639 320.66 283.473 C 320.772 283.361 320.381 282.399 319.79 281.335 C 318.766 279.49 318.109 278.543 318.449 279.4 M 78 283.684 C 78 283.804 77.728 284.554 77.395 285.351 C 77.062 286.148 76.879 286.8 76.989 286.8 C 77.306 286.8 78.433 283.9 78.205 283.672 C 78.092 283.559 78 283.565 78 283.684 M 321.716 286.1 C 321.827 286.375 322.686 288.535 323.625 290.9 C 324.565 293.265 325.401 295.132 325.485 295.048 C 325.678 294.855 321.986 285.6 321.716 285.6 C 321.605 285.6 321.605 285.825 321.716 286.1 M 74.63 291.83 C 73.603 294.397 72.83 296.563 72.911 296.644 C 72.992 296.725 73.897 294.69 74.921 292.121 C 75.946 289.552 76.72 287.386 76.641 287.307 C 76.562 287.229 75.657 289.264 74.63 291.83 M 326.154 297.378 C 326.308 297.806 326.72 299.028 327.069 300.094 C 327.417 301.159 327.778 301.955 327.871 301.862 C 328.074 301.66 326.539 297.192 326.147 296.844 C 325.996 296.71 325.999 296.95 326.154 297.378 M 69.891 305.484 C 69.126 307.878 68.626 310.276 68.956 309.964 C 69.258 309.678 70.807 303.874 70.629 303.695 C 70.559 303.626 70.227 304.431 69.891 305.484 M 329.606 308.233 C 329.609 308.655 329.795 309.27 330.018 309.6 C 330.315 310.038 330.352 309.876 330.156 309 C 329.827 307.529 329.598 307.21 329.606 308.233 M 68.25 311.65 C 67.917 313.317 68.24 313.64 68.6 312 C 68.752 311.309 68.793 310.659 68.691 310.558 C 68.589 310.456 68.391 310.947 68.25 311.65 M 330.431 310.8 C 330.384 311.652 331.722 317.038 331.867 316.58 C 331.932 316.371 331.644 314.85 331.225 313.2 C 330.806 311.55 330.449 310.47 330.431 310.8 M 67.649 314.2 C 67.616 314.64 67.496 315.45 67.383 316 L 67.177 317 L 67.606 316.019 C 67.842 315.479 67.961 314.669 67.872 314.219 C 67.713 313.421 67.707 313.421 67.649 314.2 M 66.893 318.4 C 66.893 319.17 66.975 319.485 67.076 319.1 C 67.176 318.715 67.176 318.085 67.076 317.7 C 66.975 317.315 66.893 317.63 66.893 318.4 M 332.04 318.633 C 332.062 319.275 332.233 320.25 332.42 320.8 C 332.649 321.474 332.684 321.149 332.528 319.8 C 332.269 317.55 331.979 316.859 332.04 318.633 M 65.84 324.24 C 65.69 325.703 65.649 326.982 65.748 327.082 C 65.848 327.181 66.057 326.071 66.213 324.613 C 66.369 323.156 66.411 321.877 66.305 321.772 C 66.199 321.666 65.99 322.777 65.84 324.24 M 332.847 323.433 C 332.873 324.295 333.039 325.54 333.215 326.2 C 333.418 326.956 333.454 326.438 333.315 324.8 C 333.067 321.886 332.775 321.031 332.847 323.433 M 65.373 331.499 L 65.4 334.6 L 199.6 334.6 L 333.8 334.6 L 333.83 331.6 L 333.861 328.6 L 333.713 331.5 L 333.565 334.4 L 199.599 334.4 L 65.634 334.4 L 65.49 331.399 L 65.346 328.397 L 65.373 331.499" stroke-linecap="round"/>
</g>
</g>
</g>
</svg>